<?xml version="1.0" encoding="UTF-8"?><svg xmlns="http://www.w3.org/2000/svg" xmlns:xlink="http://www.w3.org/1999/xlink" width="150" zoomAndPan="magnify" viewBox="0 0 150 74.999997" height="74.999997" preserveAspectRatio="xMidYMid meet" version="1.0"><defs><clipPath id="clip-0"><path d="M 7.5 7.5 L 33.273438 7.5 L 33.273438 33.273438 L 7.5 33.273438 Z M 7.5 7.5 " clip-rule="nonzero"/></clipPath><clipPath id="clip-1"><path d="M 42.589844 43.78125 L 83.183594 43.78125 L 83.183594 67.621094 L 42.589844 67.621094 Z M 42.589844 43.78125 " clip-rule="nonzero"/></clipPath><clipPath id="clip-2"><path d="M 62.964844 25.621094 L 86.132812 25.621094 L 86.132812 41.398438 L 62.964844 41.398438 Z M 62.964844 25.621094 " clip-rule="nonzero"/></clipPath><clipPath id="clip-3"><path d="M 82.542969 41.539062 L 84.09375 41.539062 L 84.09375 43.019531 L 82.542969 43.019531 Z M 82.542969 41.539062 " clip-rule="nonzero"/></clipPath><clipPath id="clip-4"><path d="M 34.042969 19.410156 L 56.351562 19.410156 L 56.351562 41.964844 L 34.042969 41.964844 Z M 34.042969 19.410156 " clip-rule="nonzero"/></clipPath><clipPath id="clip-5"><path d="M 7.5 49 L 14 49 L 14 56 L 7.5 56 Z M 7.5 49 " clip-rule="nonzero"/></clipPath><clipPath id="clip-6"><path d="M 34 49 L 39.714844 49 L 39.714844 56 L 34 56 Z M 34 49 " clip-rule="nonzero"/></clipPath><clipPath id="clip-7"><path d="M 8 56 L 14 56 L 14 67.261719 L 8 67.261719 Z M 8 56 " clip-rule="nonzero"/></clipPath><clipPath id="clip-8"><path d="M 34 56 L 39 56 L 39 67.261719 L 34 67.261719 Z M 34 56 " clip-rule="nonzero"/></clipPath><clipPath id="clip-9"><path d="M 14 35.046875 L 33 35.046875 L 33 67.261719 L 14 67.261719 Z M 14 35.046875 " clip-rule="nonzero"/></clipPath><clipPath id="clip-10"><path d="M 24 59 L 28 59 L 28 67.261719 L 24 67.261719 Z M 24 59 " clip-rule="nonzero"/></clipPath><clipPath id="clip-11"><path d="M 19 59 L 23 59 L 23 67.261719 L 19 67.261719 Z M 19 59 " clip-rule="nonzero"/></clipPath><clipPath id="clip-12"><path d="M 83.308594 39.628906 L 109.011719 39.628906 L 109.011719 65.402344 L 83.308594 65.402344 Z M 83.308594 39.628906 " clip-rule="nonzero"/></clipPath><clipPath id="clip-13"><path d="M 49.125 7.5 L 63 7.5 L 63 22 L 49.125 22 Z M 49.125 7.5 " clip-rule="nonzero"/></clipPath><clipPath id="clip-14"><path d="M 50 14 L 67.167969 14 L 67.167969 27.472656 L 50 27.472656 Z M 50 14 " clip-rule="nonzero"/></clipPath></defs><g clip-path="url(#clip-0)"><path fill="rgb(0%, 0%, 0%)" d="M 29.757812 23.902344 L 28.585938 23.902344 L 28.585938 16.273438 C 28.585938 15.785156 28.5 15.308594 28.328125 14.847656 C 28.152344 14.386719 27.90625 13.972656 27.582031 13.601562 C 27.261719 13.234375 26.882812 12.929688 26.449219 12.695312 C 26.019531 12.464844 25.558594 12.3125 25.074219 12.246094 L 25.074219 11.015625 C 25.074219 10.546875 24.984375 10.101562 24.804688 9.667969 C 24.625 9.238281 24.371094 8.859375 24.042969 8.53125 C 23.714844 8.199219 23.332031 7.945312 22.902344 7.765625 C 22.472656 7.589844 22.023438 7.5 21.558594 7.5 L 19.214844 7.5 C 18.75 7.5 18.300781 7.589844 17.871094 7.765625 C 17.441406 7.945312 17.058594 8.199219 16.730469 8.53125 C 16.402344 8.859375 16.144531 9.238281 15.96875 9.667969 C 15.789062 10.101562 15.699219 10.546875 15.699219 11.015625 L 15.699219 12.1875 C 15.210938 12.253906 14.746094 12.40625 14.308594 12.644531 C 13.875 12.882812 13.496094 13.191406 13.171875 13.566406 C 12.847656 13.941406 12.601562 14.363281 12.429688 14.832031 C 12.261719 15.296875 12.179688 15.777344 12.1875 16.273438 L 12.1875 23.902344 L 11.015625 23.902344 C 10.546875 23.902344 10.101562 23.992188 9.667969 24.167969 C 9.238281 24.347656 8.859375 24.601562 8.53125 24.929688 C 8.199219 25.261719 7.945312 25.640625 7.765625 26.070312 C 7.589844 26.5 7.5 26.949219 7.5 27.414062 L 7.5 29.757812 C 7.5 30.226562 7.589844 30.671875 7.765625 31.105469 C 7.945312 31.535156 8.199219 31.914062 8.53125 32.242188 C 8.859375 32.574219 9.238281 32.828125 9.667969 33.003906 C 10.101562 33.183594 10.546875 33.273438 11.015625 33.273438 L 29.757812 33.273438 C 30.226562 33.273438 30.671875 33.183594 31.105469 33.003906 C 31.535156 32.828125 31.914062 32.574219 32.242188 32.242188 C 32.574219 31.914062 32.828125 31.535156 33.003906 31.105469 C 33.183594 30.671875 33.273438 30.226562 33.273438 29.757812 L 33.273438 27.414062 C 33.273438 26.949219 33.183594 26.5 33.003906 26.070312 C 32.828125 25.640625 32.574219 25.261719 32.242188 24.929688 C 31.914062 24.601562 31.535156 24.347656 31.105469 24.167969 C 30.671875 23.992188 30.226562 23.902344 29.757812 23.902344 Z M 18.042969 11.015625 C 18.042969 10.859375 18.074219 10.710938 18.132812 10.566406 C 18.191406 10.421875 18.277344 10.296875 18.386719 10.1875 C 18.496094 10.078125 18.625 9.992188 18.765625 9.933594 C 18.910156 9.871094 19.058594 9.84375 19.214844 9.84375 L 21.558594 9.84375 C 21.714844 9.84375 21.863281 9.871094 22.007812 9.933594 C 22.148438 9.992188 22.277344 10.078125 22.386719 10.1875 C 22.496094 10.296875 22.582031 10.421875 22.640625 10.566406 C 22.699219 10.710938 22.730469 10.859375 22.730469 11.015625 L 22.730469 12.1875 L 18.042969 12.1875 Z M 16.273438 14.527344 L 24.476562 14.527344 C 24.707031 14.527344 24.933594 14.566406 25.148438 14.65625 C 25.367188 14.742188 25.558594 14.867188 25.722656 15.03125 C 25.890625 15.195312 26.019531 15.386719 26.109375 15.601562 C 26.199219 15.816406 26.242188 16.042969 26.242188 16.273438 L 26.242188 21.558594 L 14.527344 21.558594 L 14.527344 16.273438 C 14.527344 16.042969 14.574219 15.820312 14.660156 15.605469 C 14.75 15.394531 14.875 15.203125 15.039062 15.039062 C 15.203125 14.875 15.394531 14.75 15.605469 14.660156 C 15.820312 14.574219 16.042969 14.527344 16.273438 14.527344 Z M 19.214844 23.902344 L 21.558594 23.902344 L 21.558594 26.242188 L 19.214844 26.242188 Z M 9.84375 29.757812 L 9.84375 27.414062 C 9.84375 27.261719 9.871094 27.109375 9.933594 26.96875 C 9.992188 26.824219 10.078125 26.695312 10.1875 26.585938 C 10.296875 26.476562 10.421875 26.394531 10.566406 26.332031 C 10.710938 26.273438 10.859375 26.242188 11.015625 26.242188 L 12.1875 26.242188 L 12.1875 30.929688 L 11.015625 30.929688 C 10.859375 30.929688 10.710938 30.902344 10.566406 30.839844 C 10.421875 30.78125 10.296875 30.695312 10.1875 30.585938 C 10.078125 30.476562 9.992188 30.351562 9.933594 30.207031 C 9.871094 30.0625 9.84375 29.914062 9.84375 29.757812 Z M 14.527344 25.074219 L 14.527344 23.902344 L 16.871094 23.902344 L 16.871094 27.414062 C 16.871094 27.570312 16.902344 27.71875 16.960938 27.863281 C 17.019531 28.007812 17.105469 28.132812 17.214844 28.242188 C 17.324219 28.355469 17.453125 28.4375 17.59375 28.496094 C 17.738281 28.558594 17.886719 28.585938 18.042969 28.585938 L 22.730469 28.585938 C 22.886719 28.585938 23.035156 28.558594 23.179688 28.496094 C 23.320312 28.4375 23.449219 28.355469 23.558594 28.242188 C 23.667969 28.132812 23.753906 28.007812 23.8125 27.863281 C 23.871094 27.71875 23.902344 27.570312 23.902344 27.414062 L 23.902344 23.902344 L 26.242188 23.902344 L 26.242188 30.929688 L 14.527344 30.929688 Z M 30.929688 29.757812 C 30.929688 29.914062 30.902344 30.0625 30.839844 30.207031 C 30.78125 30.351562 30.695312 30.476562 30.585938 30.585938 C 30.476562 30.695312 30.351562 30.78125 30.207031 30.839844 C 30.0625 30.902344 29.914062 30.929688 29.757812 30.929688 L 28.585938 30.929688 L 28.585938 26.242188 L 29.757812 26.242188 C 29.914062 26.242188 30.0625 26.273438 30.207031 26.332031 C 30.351562 26.394531 30.476562 26.476562 30.585938 26.585938 C 30.695312 26.695312 30.78125 26.824219 30.839844 26.96875 C 30.902344 27.109375 30.929688 27.261719 30.929688 27.414062 Z M 30.929688 29.757812 " fill-opacity="1" fill-rule="nonzero"/></g><path fill="rgb(100%, 100%, 100%)" d="M 82.472656 60.808594 L 82.472656 62.171875 C 82.472656 62.351562 82.4375 62.527344 82.367188 62.691406 C 82.300781 62.859375 82.203125 63.007812 82.074219 63.132812 C 81.949219 63.261719 81.804688 63.359375 81.636719 63.429688 C 81.472656 63.5 81.300781 63.535156 81.121094 63.535156 L 79.09375 63.535156 C 79.09375 63.082031 79.011719 62.648438 78.839844 62.230469 C 78.667969 61.8125 78.421875 61.445312 78.105469 61.125 C 77.789062 60.808594 77.425781 60.5625 77.011719 60.386719 C 76.597656 60.214844 76.167969 60.128906 75.71875 60.128906 C 75.269531 60.128906 74.839844 60.214844 74.425781 60.386719 C 74.011719 60.5625 73.648438 60.808594 73.332031 61.125 C 73.015625 61.445312 72.769531 61.8125 72.597656 62.230469 C 72.425781 62.648438 72.339844 63.082031 72.339844 63.535156 L 70.316406 63.535156 L 70.316406 49.910156 L 63.5625 49.910156 L 63.5625 63.535156 L 52.753906 63.535156 C 52.753906 63.082031 52.667969 62.648438 52.496094 62.230469 C 52.328125 61.8125 52.082031 61.445312 51.765625 61.125 C 51.449219 60.808594 51.085938 60.5625 50.671875 60.386719 C 50.257812 60.214844 49.824219 60.128906 49.378906 60.128906 C 48.929688 60.128906 48.5 60.214844 48.085938 60.386719 C 47.671875 60.5625 47.308594 60.808594 46.988281 61.125 C 46.671875 61.445312 46.429688 61.8125 46.257812 62.230469 C 46.085938 62.648438 46 63.082031 46 63.535156 L 44.648438 63.535156 C 44.472656 63.535156 44.300781 63.5 44.132812 63.429688 C 43.96875 63.359375 43.824219 63.261719 43.695312 63.132812 C 43.570312 63.007812 43.472656 62.859375 43.402344 62.691406 C 43.335938 62.527344 43.300781 62.351562 43.300781 62.171875 L 43.300781 47.1875 L 73.015625 47.1875 L 73.015625 53.316406 L 75.71875 53.316406 L 81.507812 55.066406 C 81.792969 55.152344 82.027344 55.316406 82.203125 55.558594 C 82.382812 55.800781 82.472656 56.074219 82.472656 56.375 L 82.472656 58.085938 L 81.121094 58.085938 C 80.746094 58.082031 80.425781 58.214844 80.164062 58.488281 C 79.96875 58.683594 79.847656 58.914062 79.796875 59.183594 C 79.742188 59.453125 79.769531 59.71875 79.875 59.972656 C 79.980469 60.226562 80.144531 60.429688 80.371094 60.582031 C 80.597656 60.734375 80.847656 60.808594 81.121094 60.808594 Z M 60.859375 55.359375 L 60.859375 49.910156 L 46 49.910156 L 46 55.359375 Z M 60.859375 55.359375 " fill-opacity="1" fill-rule="nonzero"/><path fill="rgb(0%, 0%, 0%)" d="M 82.472656 58.085938 L 82.472656 60.808594 L 81.121094 60.808594 C 80.847656 60.808594 80.597656 60.734375 80.371094 60.582031 C 80.144531 60.429688 79.980469 60.226562 79.875 59.972656 C 79.769531 59.71875 79.742188 59.453125 79.796875 59.183594 C 79.847656 58.914062 79.96875 58.683594 80.164062 58.488281 C 80.425781 58.214844 80.746094 58.082031 81.121094 58.085938 Z M 82.472656 58.085938 " fill-opacity="1" fill-rule="nonzero"/><path fill="rgb(100%, 100%, 100%)" d="M 75.71875 60.128906 C 76.167969 60.128906 76.597656 60.214844 77.011719 60.386719 C 77.425781 60.5625 77.789062 60.808594 78.105469 61.125 C 78.421875 61.445312 78.667969 61.8125 78.839844 62.230469 C 79.011719 62.648438 79.09375 63.082031 79.09375 63.535156 C 79.09375 63.984375 79.011719 64.421875 78.839844 64.835938 C 78.667969 65.253906 78.421875 65.625 78.105469 65.941406 C 77.789062 66.261719 77.425781 66.507812 77.011719 66.679688 C 76.597656 66.855469 76.167969 66.941406 75.71875 66.941406 C 75.269531 66.941406 74.839844 66.855469 74.425781 66.679688 C 74.011719 66.507812 73.648438 66.261719 73.332031 65.941406 C 73.015625 65.625 72.769531 65.253906 72.597656 64.835938 C 72.425781 64.421875 72.339844 63.984375 72.339844 63.535156 C 72.339844 63.082031 72.425781 62.648438 72.597656 62.230469 C 72.769531 61.8125 73.015625 61.445312 73.332031 61.125 C 73.648438 60.808594 74.011719 60.5625 74.425781 60.386719 C 74.839844 60.214844 75.269531 60.128906 75.71875 60.128906 Z M 76.394531 63.535156 C 76.394531 63.347656 76.328125 63.1875 76.195312 63.054688 C 76.0625 62.917969 75.90625 62.851562 75.71875 62.851562 C 75.53125 62.851562 75.371094 62.917969 75.242188 63.054688 C 75.109375 63.1875 75.042969 63.347656 75.042969 63.535156 C 75.042969 63.722656 75.109375 63.882812 75.242188 64.015625 C 75.371094 64.148438 75.53125 64.214844 75.71875 64.214844 C 75.90625 64.214844 76.0625 64.148438 76.195312 64.015625 C 76.328125 63.882812 76.394531 63.722656 76.394531 63.535156 Z M 76.394531 63.535156 " fill-opacity="1" fill-rule="nonzero"/><path fill="rgb(65.098572%, 65.098572%, 65.098572%)" d="M 73.015625 47.1875 L 75.71875 47.1875 L 75.71875 53.316406 L 73.015625 53.316406 Z M 73.015625 47.1875 " fill-opacity="1" fill-rule="nonzero"/><path fill="rgb(0%, 0%, 0%)" d="M 75.71875 45.824219 L 75.71875 47.1875 L 43.300781 47.1875 L 43.300781 45.824219 C 43.300781 45.644531 43.335938 45.46875 43.402344 45.304688 C 43.472656 45.136719 43.570312 44.988281 43.695312 44.863281 C 43.824219 44.734375 43.96875 44.636719 44.132812 44.566406 C 44.300781 44.496094 44.472656 44.460938 44.648438 44.460938 L 74.367188 44.460938 C 74.546875 44.460938 74.71875 44.496094 74.882812 44.566406 C 75.050781 44.636719 75.195312 44.734375 75.320312 44.863281 C 75.449219 44.988281 75.546875 45.136719 75.613281 45.304688 C 75.683594 45.46875 75.71875 45.644531 75.71875 45.824219 Z M 75.71875 45.824219 " fill-opacity="1" fill-rule="nonzero"/><path fill="rgb(0%, 0%, 0%)" d="M 63.5625 56.722656 L 70.316406 56.722656 L 70.316406 63.535156 L 63.5625 63.535156 Z M 63.5625 56.722656 " fill-opacity="1" fill-rule="nonzero"/><path fill="rgb(65.098572%, 65.098572%, 65.098572%)" d="M 66.9375 49.910156 L 70.316406 49.910156 L 70.316406 56.722656 L 66.9375 56.722656 Z M 66.9375 49.910156 " fill-opacity="1" fill-rule="nonzero"/><path fill="rgb(65.098572%, 65.098572%, 65.098572%)" d="M 63.5625 49.910156 L 66.9375 49.910156 L 66.9375 56.722656 L 63.5625 56.722656 Z M 63.5625 49.910156 " fill-opacity="1" fill-rule="nonzero"/><path fill="rgb(65.098572%, 65.098572%, 65.098572%)" d="M 56.132812 49.910156 L 60.859375 49.910156 L 60.859375 55.359375 L 56.132812 55.359375 Z M 56.132812 49.910156 " fill-opacity="1" fill-rule="nonzero"/><path fill="rgb(65.098572%, 65.098572%, 65.098572%)" d="M 50.730469 49.910156 L 56.132812 49.910156 L 56.132812 55.359375 L 50.730469 55.359375 Z M 50.730469 49.910156 " fill-opacity="1" fill-rule="nonzero"/><path fill="rgb(100%, 100%, 100%)" d="M 49.378906 60.128906 C 49.824219 60.128906 50.257812 60.214844 50.671875 60.386719 C 51.085938 60.5625 51.449219 60.808594 51.765625 61.125 C 52.082031 61.445312 52.328125 61.8125 52.496094 62.230469 C 52.667969 62.648438 52.753906 63.082031 52.753906 63.535156 C 52.753906 63.984375 52.667969 64.421875 52.496094 64.835938 C 52.328125 65.253906 52.082031 65.625 51.765625 65.941406 C 51.449219 66.261719 51.085938 66.507812 50.671875 66.679688 C 50.257812 66.855469 49.824219 66.941406 49.378906 66.941406 C 48.929688 66.941406 48.5 66.855469 48.085938 66.679688 C 47.671875 66.507812 47.308594 66.261719 46.988281 65.941406 C 46.671875 65.625 46.429688 65.253906 46.257812 64.835938 C 46.085938 64.421875 46 63.984375 46 63.535156 C 46 63.082031 46.085938 62.648438 46.257812 62.230469 C 46.429688 61.8125 46.671875 61.445312 46.988281 61.125 C 47.308594 60.808594 47.671875 60.5625 48.085938 60.386719 C 48.5 60.214844 48.929688 60.128906 49.378906 60.128906 Z M 50.054688 63.535156 C 50.054688 63.347656 49.988281 63.1875 49.855469 63.054688 C 49.722656 62.917969 49.566406 62.851562 49.378906 62.851562 C 49.191406 62.851562 49.03125 62.917969 48.902344 63.054688 C 48.769531 63.1875 48.703125 63.347656 48.703125 63.535156 C 48.703125 63.722656 48.769531 63.882812 48.902344 64.015625 C 49.03125 64.148438 49.191406 64.214844 49.378906 64.214844 C 49.566406 64.214844 49.722656 64.148438 49.855469 64.015625 C 49.988281 63.882812 50.054688 63.722656 50.054688 63.535156 Z M 50.054688 63.535156 " fill-opacity="1" fill-rule="nonzero"/><path fill="rgb(65.098572%, 65.098572%, 65.098572%)" d="M 46 49.910156 L 50.730469 49.910156 L 50.730469 55.359375 L 46 55.359375 Z M 46 49.910156 " fill-opacity="1" fill-rule="nonzero"/><g clip-path="url(#clip-1)"><path fill="rgb(13.729858%, 12.159729%, 12.548828%)" d="M 81.703125 54.414062 L 76.394531 52.8125 L 76.394531 46.503906 L 78.421875 46.503906 C 78.605469 46.503906 78.765625 46.570312 78.898438 46.707031 C 79.03125 46.839844 79.09375 47 79.09375 47.1875 L 79.09375 50.59375 L 80.445312 50.59375 L 80.445312 47.1875 C 80.445312 46.917969 80.394531 46.65625 80.289062 46.40625 C 80.1875 46.15625 80.039062 45.933594 79.851562 45.742188 C 79.660156 45.550781 79.441406 45.40625 79.195312 45.300781 C 78.945312 45.195312 78.6875 45.144531 78.421875 45.144531 L 76.273438 45.144531 C 76.128906 44.738281 75.882812 44.410156 75.535156 44.160156 C 75.183594 43.910156 74.796875 43.785156 74.367188 43.78125 L 44.648438 43.78125 C 44.382812 43.78125 44.125 43.835938 43.875 43.9375 C 43.628906 44.042969 43.410156 44.191406 43.21875 44.382812 C 43.03125 44.574219 42.882812 44.792969 42.78125 45.042969 C 42.675781 45.292969 42.625 45.554688 42.625 45.824219 L 42.625 62.171875 C 42.625 62.441406 42.675781 62.703125 42.78125 62.953125 C 42.882812 63.203125 43.03125 63.421875 43.21875 63.617188 C 43.410156 63.808594 43.628906 63.953125 43.875 64.058594 C 44.125 64.164062 44.382812 64.214844 44.648438 64.214844 L 45.386719 64.214844 C 45.464844 64.691406 45.625 65.140625 45.859375 65.558594 C 46.097656 65.976562 46.398438 66.34375 46.765625 66.65625 C 47.128906 66.96875 47.535156 67.207031 47.984375 67.371094 C 48.433594 67.539062 48.898438 67.621094 49.378906 67.621094 C 49.855469 67.621094 50.320312 67.539062 50.769531 67.371094 C 51.21875 67.207031 51.625 66.96875 51.992188 66.65625 C 52.355469 66.34375 52.660156 65.976562 52.894531 65.558594 C 53.132812 65.140625 53.289062 64.691406 53.371094 64.214844 L 71.726562 64.214844 C 71.804688 64.691406 71.964844 65.140625 72.203125 65.558594 C 72.4375 65.976562 72.738281 66.34375 73.105469 66.65625 C 73.46875 66.96875 73.878906 67.207031 74.328125 67.371094 C 74.777344 67.539062 75.238281 67.621094 75.71875 67.621094 C 76.195312 67.621094 76.660156 67.539062 77.109375 67.371094 C 77.558594 67.207031 77.96875 66.96875 78.332031 66.65625 C 78.699219 66.34375 79 65.976562 79.234375 65.558594 C 79.472656 65.140625 79.628906 64.691406 79.710938 64.214844 L 81.121094 64.214844 C 81.390625 64.214844 81.648438 64.164062 81.894531 64.058594 C 82.144531 63.953125 82.363281 63.808594 82.550781 63.617188 C 82.742188 63.421875 82.890625 63.203125 82.992188 62.953125 C 83.09375 62.703125 83.148438 62.441406 83.148438 62.171875 L 83.148438 56.375 C 83.148438 55.921875 83.015625 55.515625 82.75 55.152344 C 82.480469 54.789062 82.132812 54.542969 81.703125 54.414062 Z M 43.976562 45.824219 C 43.976562 45.636719 44.039062 45.476562 44.171875 45.34375 C 44.304688 45.210938 44.464844 45.144531 44.648438 45.144531 L 74.367188 45.144531 C 74.554688 45.144531 74.714844 45.210938 74.84375 45.34375 C 74.976562 45.476562 75.042969 45.636719 75.042969 45.824219 L 75.042969 46.503906 L 43.976562 46.503906 Z M 75.042969 47.867188 L 75.042969 52.636719 L 73.691406 52.636719 L 73.691406 47.867188 Z M 49.378906 66.257812 C 49.019531 66.257812 48.675781 66.191406 48.34375 66.050781 C 48.011719 65.914062 47.722656 65.714844 47.46875 65.460938 C 47.214844 65.207031 47.019531 64.910156 46.882812 64.578125 C 46.746094 64.242188 46.675781 63.894531 46.675781 63.535156 C 46.675781 63.171875 46.746094 62.824219 46.882812 62.492188 C 47.019531 62.15625 47.214844 61.863281 47.46875 61.609375 C 47.722656 61.351562 48.011719 61.15625 48.34375 61.015625 C 48.675781 60.878906 49.019531 60.808594 49.378906 60.808594 C 49.734375 60.808594 50.082031 60.878906 50.410156 61.015625 C 50.742188 61.15625 51.035156 61.351562 51.289062 61.609375 C 51.542969 61.863281 51.738281 62.15625 51.875 62.492188 C 52.011719 62.824219 52.078125 63.171875 52.078125 63.535156 C 52.078125 63.894531 52.011719 64.242188 51.875 64.578125 C 51.738281 64.910156 51.542969 65.207031 51.289062 65.460938 C 51.035156 65.714844 50.742188 65.914062 50.410156 66.050781 C 50.082031 66.191406 49.734375 66.257812 49.378906 66.257812 Z M 69.640625 62.851562 L 64.238281 62.851562 L 64.238281 57.402344 L 69.640625 57.402344 Z M 64.238281 56.042969 L 64.238281 50.59375 L 66.261719 50.59375 L 66.261719 56.042969 Z M 69.640625 56.042969 L 67.613281 56.042969 L 67.613281 50.59375 L 69.640625 50.59375 Z M 75.71875 66.257812 C 75.359375 66.257812 75.015625 66.191406 74.683594 66.050781 C 74.355469 65.914062 74.0625 65.714844 73.808594 65.460938 C 73.554688 65.207031 73.359375 64.910156 73.222656 64.578125 C 73.085938 64.242188 73.015625 63.894531 73.015625 63.535156 C 73.015625 63.171875 73.085938 62.824219 73.222656 62.492188 C 73.359375 62.15625 73.554688 61.863281 73.808594 61.609375 C 74.0625 61.351562 74.355469 61.15625 74.683594 61.015625 C 75.015625 60.878906 75.359375 60.808594 75.71875 60.808594 C 76.078125 60.808594 76.421875 60.878906 76.753906 61.015625 C 77.082031 61.15625 77.375 61.351562 77.628906 61.609375 C 77.882812 61.863281 78.078125 62.15625 78.214844 62.492188 C 78.351562 62.824219 78.421875 63.171875 78.421875 63.535156 C 78.421875 63.894531 78.351562 64.242188 78.214844 64.578125 C 78.078125 64.910156 77.882812 65.207031 77.628906 65.460938 C 77.375 65.714844 77.082031 65.914062 76.753906 66.050781 C 76.421875 66.191406 76.078125 66.257812 75.71875 66.257812 Z M 81.796875 60.128906 L 81.121094 60.128906 C 80.933594 60.128906 80.777344 60.0625 80.644531 59.929688 C 80.511719 59.796875 80.445312 59.636719 80.445312 59.449219 C 80.445312 59.257812 80.511719 59.097656 80.644531 58.964844 C 80.777344 58.832031 80.933594 58.765625 81.121094 58.765625 L 81.796875 58.765625 Z M 81.796875 57.402344 L 81.121094 57.402344 C 80.851562 57.402344 80.59375 57.457031 80.347656 57.558594 C 80.097656 57.664062 79.878906 57.8125 79.6875 58.003906 C 79.5 58.195312 79.351562 58.414062 79.25 58.664062 C 79.148438 58.914062 79.09375 59.175781 79.09375 59.449219 C 79.09375 59.71875 79.148438 59.980469 79.25 60.230469 C 79.351562 60.480469 79.5 60.699219 79.6875 60.890625 C 79.878906 61.085938 80.097656 61.230469 80.347656 61.335938 C 80.59375 61.4375 80.851562 61.492188 81.121094 61.492188 L 81.796875 61.492188 L 81.796875 62.171875 C 81.796875 62.359375 81.730469 62.519531 81.597656 62.652344 C 81.46875 62.785156 81.308594 62.851562 81.121094 62.851562 L 79.710938 62.851562 C 79.628906 62.378906 79.472656 61.929688 79.234375 61.511719 C 79 61.089844 78.699219 60.726562 78.332031 60.414062 C 77.96875 60.101562 77.558594 59.863281 77.109375 59.695312 C 76.660156 59.53125 76.195312 59.449219 75.71875 59.449219 C 75.238281 59.449219 74.777344 59.53125 74.328125 59.695312 C 73.878906 59.863281 73.46875 60.101562 73.105469 60.414062 C 72.738281 60.726562 72.4375 61.089844 72.203125 61.511719 C 71.964844 61.929688 71.804688 62.378906 71.726562 62.851562 L 70.992188 62.851562 L 70.992188 49.910156 C 70.992188 49.722656 70.925781 49.5625 70.792969 49.429688 C 70.660156 49.296875 70.5 49.230469 70.316406 49.230469 L 63.5625 49.230469 C 63.375 49.230469 63.214844 49.296875 63.082031 49.429688 C 62.953125 49.5625 62.886719 49.722656 62.886719 49.910156 L 62.886719 62.851562 L 53.371094 62.851562 C 53.289062 62.378906 53.132812 61.929688 52.894531 61.511719 C 52.660156 61.089844 52.355469 60.726562 51.992188 60.414062 C 51.625 60.101562 51.21875 59.863281 50.769531 59.695312 C 50.320312 59.53125 49.855469 59.449219 49.378906 59.449219 C 48.898438 59.449219 48.433594 59.53125 47.984375 59.695312 C 47.535156 59.863281 47.128906 60.101562 46.765625 60.414062 C 46.398438 60.726562 46.097656 61.089844 45.859375 61.511719 C 45.625 61.929688 45.464844 62.378906 45.386719 62.851562 L 44.648438 62.851562 C 44.464844 62.851562 44.304688 62.785156 44.171875 62.652344 C 44.039062 62.519531 43.976562 62.359375 43.976562 62.171875 L 43.976562 47.867188 L 72.339844 47.867188 L 72.339844 53.316406 C 72.339844 53.503906 72.40625 53.664062 72.539062 53.796875 C 72.671875 53.933594 72.832031 54 73.015625 54 L 75.617188 54 L 81.3125 55.722656 C 81.453125 55.765625 81.570312 55.847656 81.660156 55.96875 C 81.753906 56.089844 81.796875 56.222656 81.796875 56.375 Z M 81.796875 57.402344 " fill-opacity="1" fill-rule="nonzero"/></g><path fill="rgb(13.729858%, 12.159729%, 12.548828%)" d="M 50.730469 63.535156 C 50.730469 63.714844 50.695312 63.890625 50.625 64.054688 C 50.558594 64.222656 50.460938 64.371094 50.332031 64.496094 C 50.207031 64.625 50.058594 64.722656 49.894531 64.792969 C 49.730469 64.863281 49.558594 64.898438 49.378906 64.898438 C 49.199219 64.898438 49.027344 64.863281 48.859375 64.792969 C 48.695312 64.722656 48.550781 64.625 48.421875 64.496094 C 48.296875 64.371094 48.199219 64.222656 48.128906 64.054688 C 48.0625 63.890625 48.027344 63.714844 48.027344 63.535156 C 48.027344 63.355469 48.0625 63.179688 48.128906 63.011719 C 48.199219 62.847656 48.296875 62.699219 48.421875 62.570312 C 48.550781 62.441406 48.695312 62.34375 48.859375 62.277344 C 49.027344 62.207031 49.199219 62.171875 49.378906 62.171875 C 49.558594 62.171875 49.730469 62.207031 49.894531 62.277344 C 50.058594 62.34375 50.207031 62.441406 50.332031 62.570312 C 50.460938 62.699219 50.558594 62.847656 50.625 63.011719 C 50.695312 63.179688 50.730469 63.355469 50.730469 63.535156 Z M 50.730469 63.535156 " fill-opacity="1" fill-rule="nonzero"/><path fill="rgb(13.729858%, 12.159729%, 12.548828%)" d="M 77.070312 63.535156 C 77.070312 63.714844 77.035156 63.890625 76.964844 64.054688 C 76.898438 64.222656 76.800781 64.371094 76.671875 64.496094 C 76.546875 64.625 76.402344 64.722656 76.234375 64.792969 C 76.070312 64.863281 75.898438 64.898438 75.71875 64.898438 C 75.539062 64.898438 75.367188 64.863281 75.203125 64.792969 C 75.035156 64.722656 74.890625 64.625 74.761719 64.496094 C 74.636719 64.371094 74.539062 64.222656 74.46875 64.054688 C 74.402344 63.890625 74.367188 63.714844 74.367188 63.535156 C 74.367188 63.355469 74.402344 63.179688 74.46875 63.011719 C 74.539062 62.847656 74.636719 62.699219 74.761719 62.570312 C 74.890625 62.441406 75.035156 62.34375 75.203125 62.277344 C 75.367188 62.207031 75.539062 62.171875 75.71875 62.171875 C 75.898438 62.171875 76.070312 62.207031 76.234375 62.277344 C 76.402344 62.34375 76.546875 62.441406 76.671875 62.570312 C 76.800781 62.699219 76.898438 62.847656 76.964844 63.011719 C 77.035156 63.179688 77.070312 63.355469 77.070312 63.535156 Z M 77.070312 63.535156 " fill-opacity="1" fill-rule="nonzero"/><path fill="rgb(13.729858%, 12.159729%, 12.548828%)" d="M 60.859375 49.230469 L 46 49.230469 C 45.816406 49.230469 45.65625 49.296875 45.523438 49.429688 C 45.390625 49.5625 45.324219 49.722656 45.324219 49.910156 L 45.324219 55.359375 C 45.324219 55.546875 45.390625 55.710938 45.523438 55.84375 C 45.65625 55.976562 45.816406 56.042969 46 56.042969 L 60.859375 56.042969 C 61.046875 56.042969 61.207031 55.976562 61.335938 55.84375 C 61.46875 55.710938 61.535156 55.546875 61.535156 55.359375 L 61.535156 49.910156 C 61.535156 49.722656 61.46875 49.5625 61.335938 49.429688 C 61.207031 49.296875 61.046875 49.230469 60.859375 49.230469 Z M 50.054688 54.679688 L 46.675781 54.679688 L 46.675781 50.59375 L 50.054688 50.59375 Z M 55.457031 54.679688 L 51.402344 54.679688 L 51.402344 50.59375 L 55.457031 50.59375 Z M 60.183594 54.679688 L 56.808594 54.679688 L 56.808594 50.59375 L 60.183594 50.59375 Z M 60.183594 54.679688 " fill-opacity="1" fill-rule="nonzero"/><path fill="rgb(15.689087%, 14.898682%, 14.898682%)" d="M 82.109375 33.285156 C 82.109375 33.089844 81.90625 33.011719 81.746094 33.082031 C 79.542969 34.023438 77.34375 34.964844 75.140625 35.90625 C 74.945312 35.992188 74.746094 36.074219 74.546875 36.160156 C 72.382812 35.230469 70.21875 34.304688 68.050781 33.378906 C 67.820312 33.277344 67.589844 33.179688 67.359375 33.082031 C 67.195312 33.011719 66.996094 33.089844 66.996094 33.285156 C 66.996094 34.394531 66.996094 35.503906 66.996094 36.613281 C 66.996094 38.460938 68.722656 39.675781 70.292969 40.3125 C 72.640625 41.265625 75.445312 41.316406 77.875 40.632812 C 79.617188 40.140625 81.789062 39.003906 82.078125 37.039062 C 82.167969 36.425781 82.109375 35.773438 82.109375 35.15625 C 82.109375 34.53125 82.109375 33.910156 82.109375 33.285156 " fill-opacity="1" fill-rule="nonzero"/><g clip-path="url(#clip-2)"><path fill="rgb(15.689087%, 14.898682%, 14.898682%)" d="M 76.003906 30.683594 C 75.914062 31.324219 75.144531 31.613281 74.550781 31.601562 C 73.996094 31.59375 73.054688 31.316406 73.089844 30.605469 C 73.160156 29.28125 75.839844 29.257812 76.007812 30.53125 C 76.011719 30.554688 76.015625 30.578125 76.011719 30.605469 C 76.015625 30.632812 76.011719 30.660156 76.003906 30.683594 Z M 86.011719 30.398438 C 83.988281 29.550781 81.964844 28.699219 79.941406 27.851562 C 78.632812 27.300781 77.324219 26.75 76.015625 26.199219 C 75.644531 26.042969 75.273438 25.886719 74.898438 25.730469 C 74.71875 25.65625 74.578125 25.574219 74.386719 25.65625 C 72.171875 26.585938 69.957031 27.515625 67.742188 28.445312 C 66.191406 29.097656 64.640625 29.75 63.089844 30.398438 C 62.988281 30.445312 62.953125 30.523438 62.964844 30.605469 C 62.953125 30.6875 62.988281 30.769531 63.089844 30.8125 C 65.113281 31.660156 67.136719 32.511719 69.160156 33.363281 C 70.46875 33.910156 71.777344 34.460938 73.085938 35.011719 C 73.460938 35.167969 73.832031 35.324219 74.203125 35.480469 C 74.382812 35.554688 74.523438 35.636719 74.71875 35.558594 C 76.933594 34.625 79.148438 33.695312 81.363281 32.765625 C 81.9375 32.523438 82.511719 32.28125 83.085938 32.042969 C 83.082031 34.152344 83.074219 36.265625 83.070312 38.375 C 83.070312 39.296875 83.066406 40.214844 83.0625 41.136719 C 83.0625 41.441406 83.546875 41.441406 83.550781 41.136719 C 83.554688 38.800781 83.558594 36.464844 83.566406 34.128906 C 83.566406 33.367188 83.566406 32.601562 83.570312 31.839844 C 84.382812 31.496094 85.199219 31.152344 86.011719 30.8125 C 86.171875 30.746094 86.171875 30.464844 86.011719 30.398438 " fill-opacity="1" fill-rule="nonzero"/></g><g clip-path="url(#clip-3)"><path fill="rgb(15.689087%, 14.898682%, 14.898682%)" d="M 84.042969 42.21875 C 83.992188 41.855469 83.707031 41.601562 83.324219 41.582031 C 82.910156 41.5625 82.613281 41.929688 82.59375 42.300781 C 82.570312 42.707031 82.945312 43 83.324219 43.019531 C 83.703125 43.039062 83.984375 42.726562 84.042969 42.386719 C 84.050781 42.359375 84.054688 42.332031 84.054688 42.300781 C 84.054688 42.269531 84.050781 42.246094 84.042969 42.21875 " fill-opacity="1" fill-rule="nonzero"/></g><g clip-path="url(#clip-4)"><path fill="rgb(32.939148%, 32.939148%, 32.939148%)" d="M 36.414062 20.882812 L 35.273438 19.746094 C 34.960938 19.429688 34.449219 19.429688 34.136719 19.746094 C 33.820312 20.058594 33.820312 20.570312 34.136719 20.882812 L 35.273438 22.023438 C 34.332031 22.96875 34.332031 24.496094 35.273438 25.441406 C 38.417969 28.582031 47.121094 37.289062 49.320312 39.484375 C 49.738281 39.90625 50.242188 40.226562 50.800781 40.425781 L 54.640625 41.8125 C 55.085938 41.972656 55.582031 41.859375 55.914062 41.527344 C 56.25 41.191406 56.359375 40.695312 56.199219 40.25 C 55.820312 39.191406 55.167969 37.386719 54.816406 36.410156 C 54.617188 35.855469 54.292969 35.347656 53.875 34.929688 L 40.398438 21.453125 C 40.550781 21.304688 40.753906 21.21875 40.96875 21.21875 C 41.183594 21.21875 41.386719 21.300781 41.539062 21.453125 C 43.4375 23.351562 47.039062 26.953125 47.039062 26.953125 C 47.351562 27.265625 47.863281 27.265625 48.175781 26.953125 C 48.492188 26.636719 48.492188 26.128906 48.175781 25.8125 C 48.175781 25.8125 44.574219 22.210938 42.675781 20.316406 C 42.226562 19.863281 41.609375 19.605469 40.96875 19.605469 C 40.328125 19.605469 39.714844 19.863281 39.261719 20.316406 L 39.164062 20.414062 C 38.265625 19.984375 37.15625 20.140625 36.414062 20.882812 Z M 53.175781 36.667969 C 53.222656 36.761719 53.265625 36.859375 53.300781 36.957031 L 54.402344 40.011719 L 51.347656 38.910156 C 51.246094 38.875 51.152344 38.832031 51.058594 38.785156 C 51.496094 37.855469 52.246094 37.105469 53.175781 36.667969 Z M 50.867188 34.199219 L 52.085938 35.417969 C 51.136719 35.957031 50.347656 36.746094 49.808594 37.695312 L 48.589844 36.480469 C 49.035156 35.464844 49.855469 34.648438 50.867188 34.199219 Z M 47.390625 35.28125 L 36.414062 24.300781 C 36.097656 23.988281 36.097656 23.476562 36.414062 23.164062 C 36.78125 22.796875 37.183594 22.390625 37.550781 22.023438 C 37.867188 21.710938 38.375 21.710938 38.691406 22.023438 L 49.671875 33.003906 C 48.722656 33.542969 47.933594 34.332031 47.390625 35.28125 Z M 47.390625 35.28125 " fill-opacity="1" fill-rule="evenodd"/></g><g clip-path="url(#clip-5)"><path fill="rgb(0%, 0%, 0%)" d="M 10.023438 50.101562 L 7.640625 54.304688 C 7.488281 54.539062 7.488281 54.773438 7.640625 55.007812 C 7.785156 55.242188 7.996094 55.359375 8.269531 55.355469 L 13.171875 55.355469 L 13.171875 49.054688 L 11.910156 49.054688 C 11.074219 49.054688 10.371094 49.472656 10.023438 50.101562 Z M 10.023438 50.101562 " fill-opacity="1" fill-rule="nonzero"/></g><g clip-path="url(#clip-6)"><path fill="rgb(0%, 0%, 0%)" d="M 39.644531 54.304688 L 37.265625 50.105469 C 37.078125 49.777344 36.820312 49.519531 36.496094 49.332031 C 36.167969 49.144531 35.816406 49.050781 35.441406 49.054688 L 34.113281 49.054688 L 34.113281 55.355469 L 39.015625 55.355469 C 39.292969 55.355469 39.5 55.242188 39.644531 55.003906 C 39.71875 54.773438 39.71875 54.539062 39.644531 54.304688 Z M 39.644531 54.304688 " fill-opacity="1" fill-rule="nonzero"/></g><g clip-path="url(#clip-7)"><path fill="rgb(0%, 0%, 0%)" d="M 8.902344 65.160156 C 8.902344 66.351562 9.8125 67.261719 11.003906 67.261719 L 13.105469 67.261719 L 13.105469 56.757812 L 8.902344 56.757812 Z M 8.902344 65.160156 " fill-opacity="1" fill-rule="nonzero"/></g><g clip-path="url(#clip-8)"><path fill="rgb(0%, 0%, 0%)" d="M 34.113281 67.261719 L 36.214844 67.261719 C 37.40625 67.261719 38.316406 66.351562 38.316406 65.160156 L 38.316406 56.757812 L 34.113281 56.757812 Z M 34.113281 67.261719 " fill-opacity="1" fill-rule="nonzero"/></g><g clip-path="url(#clip-9)"><path fill="rgb(0%, 0%, 0%)" d="M 24.308594 41.070312 L 24.308594 39.25 L 27.808594 39.25 C 28.230469 39.25 28.511719 38.96875 28.511719 38.546875 L 28.511719 35.746094 C 28.511719 35.328125 28.230469 35.046875 27.808594 35.046875 L 23.609375 35.046875 C 23.1875 35.046875 22.90625 35.328125 22.90625 35.746094 L 22.90625 41.070312 L 14.714844 49.261719 C 14.570312 49.394531 14.5 49.558594 14.503906 49.753906 L 14.503906 66.558594 C 14.503906 66.980469 14.785156 67.261719 15.207031 67.261719 L 18.007812 67.261719 L 18.007812 58.855469 C 18.007812 58.4375 18.285156 58.15625 18.707031 58.15625 L 28.511719 58.15625 C 28.929688 58.15625 29.210938 58.4375 29.210938 58.855469 L 29.210938 67.261719 L 32.011719 67.261719 C 32.433594 67.261719 32.710938 66.980469 32.710938 66.558594 L 32.710938 49.753906 C 32.71875 49.558594 32.648438 49.394531 32.503906 49.261719 Z M 23.609375 53.253906 C 23.238281 53.253906 22.878906 53.183594 22.535156 53.042969 C 22.191406 52.898438 21.890625 52.695312 21.628906 52.433594 C 21.363281 52.171875 21.164062 51.867188 21.019531 51.523438 C 20.878906 51.183594 20.808594 50.824219 20.808594 50.453125 C 20.808594 50.082031 20.878906 49.722656 21.019531 49.382812 C 21.164062 49.039062 21.363281 48.734375 21.628906 48.472656 C 21.890625 48.210938 22.191406 48.007812 22.535156 47.863281 C 22.878906 47.722656 23.238281 47.652344 23.609375 47.652344 C 23.980469 47.652344 24.335938 47.722656 24.679688 47.863281 C 25.023438 48.007812 25.328125 48.210938 25.589844 48.472656 C 25.851562 48.734375 26.054688 49.039062 26.195312 49.382812 C 26.339844 49.722656 26.410156 50.082031 26.410156 50.453125 C 26.410156 50.824219 26.335938 51.179688 26.195312 51.523438 C 26.050781 51.867188 25.847656 52.167969 25.585938 52.433594 C 25.324219 52.695312 25.023438 52.898438 24.679688 53.039062 C 24.335938 53.183594 23.980469 53.253906 23.609375 53.253906 Z M 23.609375 53.253906 " fill-opacity="1" fill-rule="nonzero"/></g><path fill="rgb(0%, 0%, 0%)" d="M 25.007812 50.453125 C 25.007812 50.640625 24.972656 50.816406 24.902344 50.988281 C 24.832031 51.160156 24.730469 51.3125 24.597656 51.445312 C 24.46875 51.574219 24.316406 51.675781 24.144531 51.746094 C 23.972656 51.816406 23.792969 51.855469 23.609375 51.855469 C 23.421875 51.855469 23.242188 51.816406 23.074219 51.746094 C 22.902344 51.675781 22.75 51.574219 22.617188 51.445312 C 22.488281 51.3125 22.386719 51.160156 22.3125 50.988281 C 22.242188 50.816406 22.207031 50.640625 22.207031 50.453125 C 22.207031 50.269531 22.242188 50.089844 22.3125 49.917969 C 22.386719 49.746094 22.488281 49.59375 22.617188 49.464844 C 22.75 49.332031 22.902344 49.230469 23.074219 49.160156 C 23.242188 49.089844 23.421875 49.054688 23.609375 49.054688 C 23.792969 49.054688 23.972656 49.089844 24.144531 49.160156 C 24.316406 49.230469 24.46875 49.332031 24.597656 49.464844 C 24.730469 49.59375 24.832031 49.746094 24.902344 49.917969 C 24.972656 50.089844 25.007812 50.269531 25.007812 50.453125 Z M 25.007812 50.453125 " fill-opacity="1" fill-rule="nonzero"/><g clip-path="url(#clip-10)"><path fill="rgb(0%, 0%, 0%)" d="M 24.308594 59.558594 L 27.808594 59.558594 L 27.808594 67.261719 L 24.308594 67.261719 Z M 24.308594 59.558594 " fill-opacity="1" fill-rule="nonzero"/></g><g clip-path="url(#clip-11)"><path fill="rgb(0%, 0%, 0%)" d="M 19.40625 59.558594 L 22.90625 59.558594 L 22.90625 67.261719 L 19.40625 67.261719 Z M 19.40625 59.558594 " fill-opacity="1" fill-rule="nonzero"/></g><g clip-path="url(#clip-12)"><path fill="rgb(13.729858%, 13.729858%, 13.729858%)" d="M 106.523438 59.855469 L 105.230469 61.144531 C 105.101562 61.269531 104.9375 61.332031 104.773438 61.332031 C 104.609375 61.332031 104.445312 61.269531 104.320312 61.144531 C 104.070312 60.894531 104.070312 60.492188 104.320312 60.242188 L 105.613281 58.949219 L 104.421875 57.757812 L 102.519531 59.652344 C 102.394531 59.777344 102.230469 59.839844 102.066406 59.839844 C 101.902344 59.839844 101.738281 59.777344 101.613281 59.652344 C 101.359375 59.402344 101.359375 59 101.613281 58.746094 L 103.511719 56.851562 L 102.320312 55.664062 L 101.023438 56.953125 C 100.898438 57.078125 100.734375 57.140625 100.570312 57.140625 C 100.40625 57.140625 100.242188 57.078125 100.117188 56.953125 C 99.863281 56.703125 99.863281 56.296875 100.117188 56.046875 L 101.410156 54.757812 L 100.214844 53.566406 L 98.921875 54.855469 C 98.796875 54.980469 98.632812 55.042969 98.46875 55.042969 C 98.304688 55.042969 98.140625 54.980469 98.011719 54.855469 C 97.761719 54.605469 97.761719 54.199219 98.011719 53.949219 L 99.308594 52.660156 L 98.113281 51.46875 L 96.820312 52.761719 C 96.695312 52.886719 96.53125 52.949219 96.367188 52.949219 C 96.199219 52.949219 96.035156 52.886719 95.910156 52.761719 C 95.660156 52.511719 95.660156 52.105469 95.910156 51.855469 L 97.207031 50.5625 L 96.011719 49.371094 L 94.113281 51.269531 C 93.984375 51.394531 93.820312 51.457031 93.65625 51.457031 C 93.492188 51.457031 93.328125 51.394531 93.203125 51.269531 C 92.953125 51.019531 92.953125 50.613281 93.203125 50.363281 L 95.101562 48.46875 L 93.910156 47.277344 L 92.617188 48.566406 C 92.488281 48.691406 92.324219 48.753906 92.160156 48.753906 C 91.996094 48.753906 91.832031 48.691406 91.707031 48.566406 C 91.457031 48.316406 91.457031 47.910156 91.707031 47.660156 L 93 46.371094 L 91.808594 45.179688 L 90.511719 46.472656 C 90.386719 46.597656 90.222656 46.660156 90.058594 46.660156 C 89.894531 46.660156 89.730469 46.597656 89.605469 46.472656 C 89.351562 46.222656 89.351562 45.816406 89.605469 45.566406 L 90.898438 44.273438 L 89.707031 43.082031 L 88.410156 44.375 C 88.285156 44.5 88.121094 44.5625 87.957031 44.5625 C 87.792969 44.5625 87.628906 44.5 87.503906 44.375 C 87.25 44.125 87.25 43.71875 87.503906 43.46875 L 88.796875 42.175781 L 87.859375 41.242188 L 84.789062 44.304688 L 104.390625 63.851562 L 107.460938 60.789062 Z M 104.390625 65.398438 C 104.226562 65.398438 104.0625 65.335938 103.9375 65.210938 L 83.425781 44.757812 C 83.304688 44.636719 83.238281 44.476562 83.238281 44.304688 C 83.238281 44.136719 83.304688 43.972656 83.425781 43.851562 L 87.40625 39.882812 C 87.65625 39.632812 88.0625 39.632812 88.3125 39.882812 L 90.160156 41.722656 C 90.160156 41.722656 90.160156 41.726562 90.160156 41.726562 L 92.261719 43.820312 L 108.824219 60.335938 C 108.945312 60.457031 109.011719 60.621094 109.011719 60.789062 C 109.011719 60.960938 108.945312 61.125 108.824219 61.242188 L 104.84375 65.210938 C 104.71875 65.335938 104.554688 65.398438 104.390625 65.398438 " fill-opacity="1" fill-rule="nonzero"/></g><g clip-path="url(#clip-13)"><path fill="rgb(0%, 0%, 0%)" d="M 55.996094 21.394531 C 59.769531 21.394531 62.855469 18.269531 62.855469 14.449219 C 62.855469 10.625 59.769531 7.5 55.996094 7.5 C 52.226562 7.5 49.140625 10.628906 49.140625 14.449219 C 49.140625 18.269531 52.226562 21.394531 55.996094 21.394531 Z M 55.996094 12.710938 C 56.222656 12.710938 56.441406 12.753906 56.652344 12.84375 C 56.863281 12.929688 57.046875 13.058594 57.210938 13.21875 C 57.371094 13.382812 57.492188 13.570312 57.582031 13.785156 C 57.667969 13.996094 57.710938 14.21875 57.710938 14.449219 C 57.710938 14.679688 57.667969 14.898438 57.582031 15.113281 C 57.492188 15.324219 57.371094 15.511719 57.210938 15.675781 C 57.046875 15.839844 56.863281 15.964844 56.652344 16.050781 C 56.441406 16.140625 56.222656 16.183594 55.996094 16.183594 C 55.769531 16.183594 55.550781 16.140625 55.339844 16.050781 C 55.128906 15.964844 54.945312 15.839844 54.785156 15.675781 C 54.625 15.511719 54.5 15.324219 54.414062 15.113281 C 54.324219 14.898438 54.28125 14.679688 54.28125 14.449219 C 54.28125 14.21875 54.328125 13.996094 54.414062 13.785156 C 54.5 13.570312 54.625 13.382812 54.785156 13.222656 C 54.945312 13.058594 55.132812 12.933594 55.339844 12.84375 C 55.550781 12.757812 55.769531 12.710938 55.996094 12.710938 Z M 55.996094 12.710938 " fill-opacity="1" fill-rule="nonzero"/></g><path fill="rgb(0%, 0%, 0%)" d="M 56.855469 14.449219 C 56.855469 14.6875 56.769531 14.890625 56.601562 15.0625 C 56.433594 15.230469 56.234375 15.316406 55.996094 15.316406 C 55.761719 15.316406 55.558594 15.230469 55.390625 15.0625 C 55.222656 14.890625 55.140625 14.6875 55.140625 14.449219 C 55.140625 14.207031 55.222656 14.003906 55.390625 13.832031 C 55.558594 13.664062 55.761719 13.578125 55.996094 13.578125 C 56.234375 13.578125 56.433594 13.664062 56.601562 13.832031 C 56.769531 14.003906 56.855469 14.207031 56.855469 14.449219 Z M 56.855469 14.449219 " fill-opacity="1" fill-rule="nonzero"/><g clip-path="url(#clip-14)"><path fill="rgb(0%, 0%, 0%)" d="M 67.140625 16.617188 C 67.144531 16.386719 67.101562 16.160156 67.015625 15.945312 C 66.929688 15.730469 66.808594 15.539062 66.648438 15.375 C 66.484375 15.207031 66.300781 15.078125 66.085938 14.988281 C 65.875 14.898438 65.65625 14.855469 65.425781 14.855469 C 65.195312 14.855469 64.976562 14.898438 64.761719 14.988281 C 64.550781 15.078125 64.363281 15.207031 64.203125 15.375 C 64.042969 15.539062 63.917969 15.730469 63.832031 15.945312 C 63.75 16.160156 63.707031 16.386719 63.710938 16.617188 C 63.710938 17.445312 64.269531 18.09375 64.996094 18.3125 L 64.996094 21.398438 C 64.996094 21.855469 64.90625 22.300781 64.734375 22.722656 C 64.558594 23.148438 64.3125 23.523438 63.988281 23.851562 C 63.667969 24.175781 63.296875 24.425781 62.878906 24.601562 C 62.460938 24.78125 62.023438 24.867188 61.570312 24.871094 L 61.140625 24.871094 C 61.140625 24.132812 60.582031 23.566406 59.855469 23.566406 L 59.128906 23.566406 L 58.699219 21.742188 C 57.816406 22.097656 56.902344 22.273438 55.957031 22.265625 C 55.007812 22.273438 54.09375 22.097656 53.210938 21.742188 L 52.785156 23.566406 L 52.140625 23.566406 C 51.410156 23.566406 50.855469 24.132812 50.855469 24.871094 L 50.855469 27.042969 C 50.855469 27.300781 51.027344 27.476562 51.28125 27.476562 L 60.710938 27.476562 C 60.96875 27.476562 61.140625 27.300781 61.140625 27.042969 L 61.140625 25.738281 L 61.570312 25.738281 C 63.925781 25.738281 65.855469 23.785156 65.855469 21.394531 L 65.855469 18.308594 C 66.582031 18.09375 67.140625 17.445312 67.140625 16.617188 Z M 52.996094 25.738281 C 52.738281 25.738281 52.566406 25.5625 52.566406 25.300781 C 52.566406 25.042969 52.738281 24.867188 52.996094 24.867188 C 53.253906 24.867188 53.425781 25.042969 53.425781 25.300781 C 53.425781 25.5625 53.253906 25.738281 52.996094 25.738281 Z M 54.28125 25.738281 C 54.023438 25.738281 53.855469 25.5625 53.855469 25.300781 C 53.855469 25.042969 54.023438 24.867188 54.28125 24.867188 C 54.539062 24.867188 54.710938 25.042969 54.710938 25.300781 C 54.710938 25.5625 54.539062 25.738281 54.28125 25.738281 Z M 54.28125 25.738281 " fill-opacity="1" fill-rule="nonzero"/></g></svg>