<?xml version="1.0" encoding="UTF-8"?><svg xmlns="http://www.w3.org/2000/svg" xmlns:xlink="http://www.w3.org/1999/xlink" width="150" zoomAndPan="magnify" viewBox="0 0 150 74.999997" height="74.999997" preserveAspectRatio="xMidYMid meet" version="1.0"><defs><clipPath id="clip-0"><path d="M 117.664062 7.5 L 143.628906 7.5 L 143.628906 33.464844 L 117.664062 33.464844 Z M 117.664062 7.5 " clip-rule="nonzero"/></clipPath><clipPath id="clip-1"><path d="M 66.648438 43.605469 L 107.421875 43.605469 L 107.421875 67.621094 L 66.648438 67.621094 Z M 66.648438 43.605469 " clip-rule="nonzero"/></clipPath><clipPath id="clip-2"><path d="M 66.542969 24.664062 L 89.882812 24.664062 L 89.882812 40.554688 L 66.542969 40.554688 Z M 66.542969 24.664062 " clip-rule="nonzero"/></clipPath><clipPath id="clip-3"><path d="M 86.265625 40.699219 L 87.828125 40.699219 L 87.828125 42.1875 L 86.265625 42.1875 Z M 86.265625 40.699219 " clip-rule="nonzero"/></clipPath><clipPath id="clip-4"><path d="M 95.183594 19.78125 L 117.902344 19.78125 L 117.902344 42.5 L 95.183594 42.5 Z M 95.183594 19.78125 " clip-rule="nonzero"/></clipPath><clipPath id="clip-5"><path d="M 111.582031 48 L 118 48 L 118 56 L 111.582031 56 Z M 111.582031 48 " clip-rule="nonzero"/></clipPath><clipPath id="clip-6"><path d="M 138 48 L 144.035156 48 L 144.035156 56 L 138 56 Z M 138 48 " clip-rule="nonzero"/></clipPath><clipPath id="clip-7"><path d="M 112 56 L 118 56 L 118 67.261719 L 112 67.261719 Z M 112 56 " clip-rule="nonzero"/></clipPath><clipPath id="clip-8"><path d="M 138 56 L 143 56 L 143 67.261719 L 138 67.261719 Z M 138 56 " clip-rule="nonzero"/></clipPath><clipPath id="clip-9"><path d="M 118 34.804688 L 137 34.804688 L 137 67.261719 L 118 67.261719 Z M 118 34.804688 " clip-rule="nonzero"/></clipPath><clipPath id="clip-10"><path d="M 128 59 L 133 59 L 133 67.261719 L 128 67.261719 Z M 128 59 " clip-rule="nonzero"/></clipPath><clipPath id="clip-11"><path d="M 123 59 L 128 59 L 128 67.261719 L 123 67.261719 Z M 123 59 " clip-rule="nonzero"/></clipPath><clipPath id="clip-12"><path d="M 42.804688 38.171875 L 68.769531 38.171875 L 68.769531 64.136719 L 42.804688 64.136719 Z M 42.804688 38.171875 " clip-rule="nonzero"/></clipPath><clipPath id="clip-13"><path d="M 87 7.5 L 100.695312 7.5 L 100.695312 22 L 87 22 Z M 87 7.5 " clip-rule="nonzero"/></clipPath><clipPath id="clip-14"><path d="M 82.816406 14 L 100 14 L 100 27.621094 L 82.816406 27.621094 Z M 82.816406 14 " clip-rule="nonzero"/></clipPath></defs><g clip-path="url(#clip-0)"><path fill="rgb(0%, 0%, 0%)" d="M 140.085938 24.023438 L 138.90625 24.023438 L 138.90625 16.339844 C 138.90625 15.84375 138.816406 15.367188 138.644531 14.902344 C 138.46875 14.4375 138.21875 14.019531 137.894531 13.648438 C 137.570312 13.273438 137.191406 12.972656 136.753906 12.734375 C 136.320312 12.5 135.855469 12.347656 135.367188 12.28125 L 135.367188 11.039062 C 135.367188 10.570312 135.277344 10.121094 135.097656 9.6875 C 134.917969 9.25 134.660156 8.867188 134.328125 8.535156 C 133.996094 8.203125 133.613281 7.949219 133.179688 7.769531 C 132.746094 7.589844 132.296875 7.5 131.824219 7.5 L 129.464844 7.5 C 128.996094 7.5 128.542969 7.589844 128.109375 7.769531 C 127.675781 7.949219 127.292969 8.203125 126.960938 8.535156 C 126.628906 8.867188 126.375 9.25 126.195312 9.6875 C 126.015625 10.121094 125.925781 10.570312 125.925781 11.039062 L 125.925781 12.21875 C 125.429688 12.289062 124.964844 12.445312 124.523438 12.683594 C 124.085938 12.921875 123.703125 13.230469 123.375 13.609375 C 123.050781 13.992188 122.800781 14.414062 122.632812 14.882812 C 122.460938 15.355469 122.378906 15.839844 122.382812 16.339844 L 122.382812 24.023438 L 121.203125 24.023438 C 120.734375 24.023438 120.285156 24.113281 119.851562 24.292969 C 119.414062 24.472656 119.03125 24.726562 118.699219 25.058594 C 118.367188 25.390625 118.113281 25.773438 117.933594 26.207031 C 117.753906 26.640625 117.664062 27.09375 117.664062 27.5625 L 117.664062 29.921875 C 117.664062 30.390625 117.753906 30.84375 117.933594 31.277344 C 118.113281 31.710938 118.367188 32.09375 118.699219 32.425781 C 119.03125 32.757812 119.414062 33.015625 119.851562 33.195312 C 120.285156 33.375 120.734375 33.464844 121.203125 33.464844 L 140.085938 33.464844 C 140.554688 33.464844 141.007812 33.375 141.441406 33.195312 C 141.875 33.015625 142.257812 32.757812 142.589844 32.425781 C 142.921875 32.09375 143.179688 31.710938 143.359375 31.277344 C 143.539062 30.84375 143.628906 30.390625 143.628906 29.921875 L 143.628906 27.5625 C 143.628906 27.09375 143.539062 26.640625 143.359375 26.207031 C 143.179688 25.773438 142.921875 25.390625 142.589844 25.058594 C 142.257812 24.726562 141.875 24.472656 141.441406 24.292969 C 141.007812 24.113281 140.554688 24.023438 140.085938 24.023438 Z M 128.285156 11.039062 C 128.285156 10.882812 128.316406 10.734375 128.375 10.589844 C 128.433594 10.445312 128.519531 10.316406 128.632812 10.207031 C 128.742188 10.09375 128.871094 10.011719 129.015625 9.949219 C 129.160156 9.890625 129.308594 9.859375 129.464844 9.859375 L 131.824219 9.859375 C 131.980469 9.859375 132.132812 9.890625 132.277344 9.949219 C 132.421875 10.011719 132.550781 10.09375 132.660156 10.207031 C 132.769531 10.316406 132.855469 10.445312 132.917969 10.589844 C 132.976562 10.734375 133.007812 10.882812 133.007812 11.039062 L 133.007812 12.21875 L 128.285156 12.21875 Z M 126.503906 14.582031 L 134.765625 14.582031 C 135 14.578125 135.226562 14.621094 135.445312 14.707031 C 135.664062 14.796875 135.855469 14.921875 136.023438 15.085938 C 136.191406 15.253906 136.320312 15.445312 136.410156 15.660156 C 136.5 15.878906 136.546875 16.105469 136.546875 16.339844 L 136.546875 21.660156 L 124.746094 21.660156 L 124.746094 16.339844 C 124.746094 16.105469 124.789062 15.882812 124.878906 15.667969 C 124.96875 15.449219 125.09375 15.261719 125.261719 15.097656 C 125.425781 14.929688 125.613281 14.804688 125.832031 14.714844 C 126.046875 14.625 126.269531 14.582031 126.503906 14.582031 Z M 129.464844 24.023438 L 131.824219 24.023438 L 131.824219 26.382812 L 129.464844 26.382812 Z M 120.023438 29.921875 L 120.023438 27.5625 C 120.023438 27.40625 120.054688 27.253906 120.113281 27.109375 C 120.175781 26.964844 120.257812 26.839844 120.371094 26.726562 C 120.480469 26.617188 120.609375 26.53125 120.753906 26.472656 C 120.898438 26.414062 121.046875 26.382812 121.203125 26.382812 L 122.382812 26.382812 L 122.382812 31.101562 L 121.203125 31.101562 C 121.046875 31.101562 120.898438 31.074219 120.753906 31.011719 C 120.609375 30.953125 120.480469 30.867188 120.371094 30.757812 C 120.257812 30.648438 120.175781 30.519531 120.113281 30.375 C 120.054688 30.230469 120.023438 30.078125 120.023438 29.921875 Z M 124.746094 25.203125 L 124.746094 24.023438 L 127.105469 24.023438 L 127.105469 27.5625 C 127.105469 27.71875 127.136719 27.871094 127.195312 28.015625 C 127.253906 28.160156 127.339844 28.285156 127.449219 28.398438 C 127.5625 28.507812 127.6875 28.59375 127.832031 28.652344 C 127.976562 28.710938 128.128906 28.742188 128.285156 28.742188 L 133.007812 28.742188 C 133.164062 28.742188 133.3125 28.710938 133.457031 28.652344 C 133.601562 28.59375 133.730469 28.507812 133.839844 28.398438 C 133.949219 28.285156 134.035156 28.160156 134.097656 28.015625 C 134.15625 27.871094 134.1875 27.71875 134.1875 27.5625 L 134.1875 24.023438 L 136.546875 24.023438 L 136.546875 31.101562 L 124.746094 31.101562 Z M 141.265625 29.921875 C 141.265625 30.078125 141.238281 30.230469 141.175781 30.375 C 141.117188 30.519531 141.03125 30.648438 140.921875 30.757812 C 140.8125 30.867188 140.683594 30.953125 140.539062 31.011719 C 140.394531 31.074219 140.242188 31.101562 140.085938 31.101562 L 138.90625 31.101562 L 138.90625 26.382812 L 140.085938 26.382812 C 140.242188 26.382812 140.394531 26.414062 140.539062 26.472656 C 140.683594 26.53125 140.8125 26.617188 140.921875 26.726562 C 141.03125 26.839844 141.117188 26.964844 141.175781 27.109375 C 141.238281 27.253906 141.265625 27.40625 141.265625 27.5625 Z M 141.265625 29.921875 " fill-opacity="1" fill-rule="nonzero"/></g><path fill="rgb(100%, 100%, 100%)" d="M 67.363281 60.761719 L 67.363281 62.132812 C 67.367188 62.316406 67.402344 62.488281 67.46875 62.65625 C 67.539062 62.824219 67.636719 62.972656 67.765625 63.101562 C 67.890625 63.230469 68.039062 63.328125 68.207031 63.398438 C 68.371094 63.46875 68.546875 63.503906 68.726562 63.503906 L 70.765625 63.503906 C 70.765625 63.050781 70.851562 62.613281 71.027344 62.191406 C 71.199219 61.773438 71.445312 61.402344 71.761719 61.078125 C 72.082031 60.757812 72.449219 60.507812 72.867188 60.335938 C 73.285156 60.160156 73.71875 60.074219 74.167969 60.074219 C 74.621094 60.074219 75.054688 60.160156 75.46875 60.335938 C 75.886719 60.507812 76.253906 60.757812 76.574219 61.078125 C 76.894531 61.402344 77.140625 61.773438 77.3125 62.191406 C 77.484375 62.613281 77.570312 63.050781 77.570312 63.503906 L 79.613281 63.503906 L 79.613281 49.78125 L 86.414062 49.78125 L 86.414062 63.503906 L 97.300781 63.503906 C 97.300781 63.050781 97.386719 62.613281 97.558594 62.191406 C 97.734375 61.773438 97.980469 61.402344 98.296875 61.078125 C 98.617188 60.757812 98.984375 60.507812 99.402344 60.335938 C 99.820312 60.160156 100.253906 60.074219 100.703125 60.074219 C 101.15625 60.074219 101.589844 60.160156 102.003906 60.335938 C 102.421875 60.507812 102.789062 60.757812 103.109375 61.078125 C 103.429688 61.402344 103.671875 61.773438 103.847656 62.191406 C 104.019531 62.613281 104.105469 63.050781 104.105469 63.503906 L 105.464844 63.503906 C 105.644531 63.503906 105.820312 63.46875 105.984375 63.398438 C 106.152344 63.328125 106.300781 63.230469 106.425781 63.101562 C 106.554688 62.972656 106.652344 62.824219 106.722656 62.65625 C 106.792969 62.488281 106.828125 62.316406 106.828125 62.132812 L 106.828125 47.039062 L 76.890625 47.039062 L 76.890625 53.210938 L 74.167969 53.210938 L 68.339844 54.976562 C 68.050781 55.0625 67.816406 55.226562 67.632812 55.472656 C 67.453125 55.714844 67.363281 55.988281 67.363281 56.292969 L 67.363281 58.015625 L 68.726562 58.015625 C 69.105469 58.011719 69.425781 58.148438 69.691406 58.421875 C 69.886719 58.617188 70.007812 58.851562 70.0625 59.125 C 70.113281 59.394531 70.089844 59.660156 69.984375 59.914062 C 69.878906 60.171875 69.710938 60.375 69.480469 60.53125 C 69.253906 60.683594 69 60.761719 68.726562 60.761719 Z M 89.136719 55.269531 L 89.136719 49.78125 L 104.105469 49.78125 L 104.105469 55.269531 Z M 89.136719 55.269531 " fill-opacity="1" fill-rule="nonzero"/><path fill="rgb(0%, 0%, 0%)" d="M 67.363281 58.015625 L 67.363281 60.761719 L 68.726562 60.761719 C 69 60.761719 69.253906 60.683594 69.480469 60.53125 C 69.710938 60.375 69.878906 60.171875 69.984375 59.914062 C 70.089844 59.660156 70.113281 59.394531 70.0625 59.125 C 70.007812 58.851562 69.886719 58.617188 69.691406 58.421875 C 69.425781 58.148438 69.105469 58.011719 68.726562 58.015625 Z M 67.363281 58.015625 " fill-opacity="1" fill-rule="nonzero"/><path fill="rgb(100%, 100%, 100%)" d="M 74.167969 60.074219 C 73.71875 60.074219 73.285156 60.160156 72.867188 60.335938 C 72.449219 60.507812 72.082031 60.757812 71.761719 61.078125 C 71.445312 61.402344 71.199219 61.773438 71.027344 62.191406 C 70.851562 62.613281 70.765625 63.050781 70.765625 63.503906 C 70.765625 63.960938 70.851562 64.398438 71.027344 64.816406 C 71.199219 65.238281 71.445312 65.609375 71.761719 65.929688 C 72.082031 66.253906 72.449219 66.5 72.867188 66.675781 C 73.285156 66.847656 73.71875 66.9375 74.167969 66.9375 C 74.621094 66.9375 75.054688 66.847656 75.46875 66.675781 C 75.886719 66.5 76.253906 66.253906 76.574219 65.929688 C 76.894531 65.609375 77.140625 65.238281 77.3125 64.816406 C 77.484375 64.398438 77.570312 63.960938 77.570312 63.503906 C 77.570312 63.050781 77.484375 62.613281 77.3125 62.191406 C 77.140625 61.773438 76.894531 61.402344 76.574219 61.078125 C 76.253906 60.757812 75.886719 60.507812 75.46875 60.335938 C 75.054688 60.160156 74.621094 60.074219 74.167969 60.074219 Z M 73.488281 63.503906 C 73.488281 63.316406 73.554688 63.152344 73.6875 63.019531 C 73.820312 62.886719 73.980469 62.820312 74.167969 62.820312 C 74.355469 62.820312 74.515625 62.886719 74.648438 63.019531 C 74.78125 63.152344 74.847656 63.316406 74.847656 63.503906 C 74.847656 63.695312 74.78125 63.855469 74.648438 63.992188 C 74.515625 64.125 74.355469 64.191406 74.167969 64.191406 C 73.980469 64.191406 73.820312 64.125 73.6875 63.992188 C 73.554688 63.855469 73.488281 63.695312 73.488281 63.503906 Z M 73.488281 63.503906 " fill-opacity="1" fill-rule="nonzero"/><path fill="rgb(65.098572%, 65.098572%, 65.098572%)" d="M 76.890625 47.039062 L 74.167969 47.039062 L 74.167969 53.210938 L 76.890625 53.210938 Z M 76.890625 47.039062 " fill-opacity="1" fill-rule="nonzero"/><path fill="rgb(0%, 0%, 0%)" d="M 74.167969 45.664062 L 74.167969 47.039062 L 106.828125 47.039062 L 106.828125 45.664062 C 106.828125 45.484375 106.792969 45.308594 106.722656 45.140625 C 106.652344 44.972656 106.554688 44.824219 106.425781 44.695312 C 106.300781 44.566406 106.152344 44.46875 105.984375 44.398438 C 105.820312 44.328125 105.644531 44.292969 105.464844 44.292969 L 75.53125 44.292969 C 75.347656 44.292969 75.175781 44.328125 75.007812 44.398438 C 74.84375 44.46875 74.695312 44.566406 74.570312 44.695312 C 74.441406 44.824219 74.34375 44.972656 74.273438 45.140625 C 74.203125 45.308594 74.167969 45.484375 74.167969 45.664062 Z M 74.167969 45.664062 " fill-opacity="1" fill-rule="nonzero"/><path fill="rgb(0%, 0%, 0%)" d="M 86.414062 56.644531 L 79.613281 56.644531 L 79.613281 63.503906 L 86.414062 63.503906 Z M 86.414062 56.644531 " fill-opacity="1" fill-rule="nonzero"/><path fill="rgb(65.098572%, 65.098572%, 65.098572%)" d="M 83.015625 49.78125 L 79.613281 49.78125 L 79.613281 56.644531 L 83.015625 56.644531 Z M 83.015625 49.78125 " fill-opacity="1" fill-rule="nonzero"/><path fill="rgb(65.098572%, 65.098572%, 65.098572%)" d="M 86.414062 49.78125 L 83.015625 49.78125 L 83.015625 56.644531 L 86.414062 56.644531 Z M 86.414062 49.78125 " fill-opacity="1" fill-rule="nonzero"/><path fill="rgb(65.098572%, 65.098572%, 65.098572%)" d="M 93.898438 49.78125 L 89.136719 49.78125 L 89.136719 55.269531 L 93.898438 55.269531 Z M 93.898438 49.78125 " fill-opacity="1" fill-rule="nonzero"/><path fill="rgb(65.098572%, 65.098572%, 65.098572%)" d="M 99.34375 49.78125 L 93.898438 49.78125 L 93.898438 55.269531 L 99.34375 55.269531 Z M 99.34375 49.78125 " fill-opacity="1" fill-rule="nonzero"/><path fill="rgb(100%, 100%, 100%)" d="M 100.703125 60.074219 C 100.253906 60.074219 99.820312 60.160156 99.402344 60.335938 C 98.984375 60.507812 98.617188 60.757812 98.296875 61.078125 C 97.980469 61.402344 97.734375 61.773438 97.5625 62.191406 C 97.386719 62.613281 97.300781 63.050781 97.300781 63.503906 C 97.300781 63.960938 97.386719 64.398438 97.558594 64.816406 C 97.734375 65.238281 97.980469 65.609375 98.296875 65.929688 C 98.617188 66.253906 98.984375 66.5 99.402344 66.675781 C 99.820312 66.847656 100.253906 66.9375 100.703125 66.9375 C 101.15625 66.9375 101.589844 66.847656 102.003906 66.675781 C 102.421875 66.5 102.789062 66.253906 103.109375 65.929688 C 103.429688 65.609375 103.671875 65.238281 103.847656 64.816406 C 104.019531 64.398438 104.105469 63.960938 104.105469 63.503906 C 104.105469 63.050781 104.019531 62.613281 103.847656 62.191406 C 103.671875 61.773438 103.429688 61.402344 103.109375 61.078125 C 102.789062 60.757812 102.421875 60.507812 102.003906 60.335938 C 101.589844 60.160156 101.15625 60.074219 100.703125 60.074219 Z M 100.023438 63.503906 C 100.023438 63.316406 100.089844 63.152344 100.222656 63.019531 C 100.355469 62.886719 100.515625 62.820312 100.703125 62.820312 C 100.890625 62.820312 101.050781 62.886719 101.183594 63.019531 C 101.316406 63.152344 101.382812 63.316406 101.382812 63.503906 C 101.382812 63.695312 101.316406 63.855469 101.183594 63.992188 C 101.050781 64.125 100.890625 64.191406 100.703125 64.191406 C 100.515625 64.191406 100.355469 64.125 100.222656 63.992188 C 100.089844 63.855469 100.023438 63.695312 100.023438 63.503906 Z M 100.023438 63.503906 " fill-opacity="1" fill-rule="nonzero"/><path fill="rgb(65.098572%, 65.098572%, 65.098572%)" d="M 104.105469 49.78125 L 99.34375 49.78125 L 99.34375 55.269531 L 104.105469 55.269531 Z M 104.105469 49.78125 " fill-opacity="1" fill-rule="nonzero"/><g clip-path="url(#clip-1)"><path fill="rgb(13.729858%, 12.159729%, 12.548828%)" d="M 68.140625 54.316406 L 73.488281 52.703125 L 73.488281 46.351562 L 71.449219 46.351562 C 71.257812 46.351562 71.097656 46.417969 70.964844 46.550781 C 70.832031 46.6875 70.765625 46.847656 70.765625 47.039062 L 70.765625 50.46875 L 69.40625 50.46875 L 69.40625 47.039062 C 69.40625 46.765625 69.460938 46.503906 69.5625 46.25 C 69.667969 46 69.816406 45.777344 70.003906 45.582031 C 70.195312 45.390625 70.417969 45.242188 70.667969 45.136719 C 70.917969 45.03125 71.175781 44.980469 71.449219 44.980469 L 73.609375 44.980469 C 73.753906 44.570312 74.003906 44.238281 74.355469 43.988281 C 74.707031 43.734375 75.097656 43.609375 75.53125 43.605469 L 105.464844 43.605469 C 105.738281 43.605469 105.996094 43.660156 106.246094 43.765625 C 106.496094 43.871094 106.714844 44.019531 106.90625 44.210938 C 107.097656 44.402344 107.246094 44.625 107.351562 44.878906 C 107.453125 45.128906 107.507812 45.390625 107.507812 45.664062 L 107.507812 62.132812 C 107.507812 62.40625 107.453125 62.667969 107.351562 62.917969 C 107.246094 63.171875 107.097656 63.394531 106.90625 63.585938 C 106.714844 63.78125 106.496094 63.929688 106.246094 64.03125 C 105.996094 64.136719 105.738281 64.191406 105.464844 64.191406 L 104.722656 64.191406 C 104.644531 64.671875 104.484375 65.121094 104.246094 65.542969 C 104.007812 65.964844 103.703125 66.335938 103.335938 66.648438 C 102.96875 66.964844 102.558594 67.203125 102.105469 67.371094 C 101.652344 67.539062 101.1875 67.621094 100.703125 67.621094 C 100.222656 67.621094 99.753906 67.539062 99.300781 67.371094 C 98.847656 67.203125 98.4375 66.964844 98.070312 66.648438 C 97.703125 66.335938 97.398438 65.964844 97.160156 65.542969 C 96.921875 65.121094 96.761719 64.671875 96.683594 64.191406 L 78.191406 64.191406 C 78.109375 64.671875 77.949219 65.121094 77.710938 65.542969 C 77.472656 65.964844 77.171875 66.335938 76.800781 66.648438 C 76.433594 66.964844 76.023438 67.203125 75.570312 67.371094 C 75.117188 67.539062 74.652344 67.621094 74.167969 67.621094 C 73.6875 67.621094 73.21875 67.539062 72.765625 67.371094 C 72.3125 67.203125 71.902344 66.964844 71.535156 66.648438 C 71.167969 66.335938 70.863281 65.964844 70.625 65.542969 C 70.386719 65.121094 70.226562 64.671875 70.148438 64.191406 L 68.726562 64.191406 C 68.457031 64.191406 68.195312 64.136719 67.945312 64.03125 C 67.695312 63.929688 67.476562 63.78125 67.285156 63.585938 C 67.09375 63.394531 66.945312 63.171875 66.839844 62.917969 C 66.738281 62.667969 66.683594 62.40625 66.683594 62.132812 L 66.683594 56.292969 C 66.683594 55.839844 66.816406 55.425781 67.085938 55.0625 C 67.355469 54.695312 67.707031 54.449219 68.140625 54.316406 Z M 106.144531 45.664062 C 106.144531 45.476562 106.078125 45.3125 105.945312 45.179688 C 105.8125 45.046875 105.652344 44.980469 105.464844 44.980469 L 75.53125 44.980469 C 75.339844 44.980469 75.179688 45.046875 75.046875 45.179688 C 74.914062 45.3125 74.847656 45.476562 74.847656 45.664062 L 74.847656 46.351562 L 106.144531 46.351562 Z M 74.847656 47.722656 L 74.847656 52.527344 L 76.210938 52.527344 L 76.210938 47.722656 Z M 100.703125 66.25 C 101.0625 66.25 101.410156 66.179688 101.746094 66.039062 C 102.078125 65.902344 102.371094 65.703125 102.628906 65.445312 C 102.882812 65.1875 103.078125 64.890625 103.21875 64.554688 C 103.355469 64.21875 103.425781 63.867188 103.425781 63.503906 C 103.425781 63.140625 103.355469 62.792969 103.21875 62.453125 C 103.078125 62.117188 102.882812 61.820312 102.628906 61.5625 C 102.371094 61.308594 102.078125 61.109375 101.746094 60.96875 C 101.410156 60.832031 101.0625 60.761719 100.703125 60.761719 C 100.34375 60.761719 99.996094 60.832031 99.660156 60.96875 C 99.328125 61.109375 99.035156 61.308594 98.777344 61.5625 C 98.523438 61.820312 98.328125 62.117188 98.1875 62.453125 C 98.050781 62.792969 97.980469 63.140625 97.980469 63.503906 C 97.980469 63.867188 98.050781 64.21875 98.1875 64.554688 C 98.328125 64.890625 98.523438 65.1875 98.777344 65.445312 C 99.035156 65.703125 99.328125 65.902344 99.660156 66.039062 C 99.996094 66.179688 100.34375 66.25 100.703125 66.25 Z M 80.292969 62.820312 L 85.734375 62.820312 L 85.734375 57.328125 L 80.292969 57.328125 Z M 85.734375 55.957031 L 85.734375 50.46875 L 83.695312 50.46875 L 83.695312 55.957031 Z M 80.292969 55.957031 L 82.332031 55.957031 L 82.332031 50.46875 L 80.292969 50.46875 Z M 74.167969 66.25 C 74.53125 66.25 74.875 66.179688 75.210938 66.039062 C 75.542969 65.902344 75.839844 65.703125 76.09375 65.445312 C 76.347656 65.1875 76.546875 64.890625 76.683594 64.554688 C 76.820312 64.21875 76.890625 63.867188 76.890625 63.503906 C 76.890625 63.140625 76.820312 62.792969 76.683594 62.453125 C 76.546875 62.117188 76.347656 61.820312 76.09375 61.5625 C 75.839844 61.308594 75.542969 61.109375 75.210938 60.96875 C 74.875 60.832031 74.53125 60.761719 74.167969 60.761719 C 73.808594 60.761719 73.460938 60.832031 73.128906 60.96875 C 72.792969 61.109375 72.5 61.308594 72.246094 61.5625 C 71.988281 61.820312 71.792969 62.117188 71.65625 62.453125 C 71.515625 62.792969 71.449219 63.140625 71.449219 63.503906 C 71.449219 63.867188 71.515625 64.21875 71.65625 64.554688 C 71.792969 64.890625 71.988281 65.1875 72.246094 65.445312 C 72.5 65.703125 72.792969 65.902344 73.128906 66.039062 C 73.460938 66.179688 73.808594 66.25 74.167969 66.25 Z M 68.046875 60.074219 L 68.726562 60.074219 C 68.914062 60.074219 69.074219 60.007812 69.207031 59.875 C 69.339844 59.738281 69.40625 59.578125 69.40625 59.386719 C 69.40625 59.199219 69.339844 59.035156 69.207031 58.902344 C 69.074219 58.769531 68.914062 58.703125 68.726562 58.703125 L 68.046875 58.703125 Z M 68.046875 57.328125 L 68.726562 57.328125 C 68.996094 57.328125 69.257812 57.382812 69.507812 57.488281 C 69.757812 57.589844 69.976562 57.738281 70.167969 57.933594 C 70.359375 58.125 70.507812 58.347656 70.613281 58.601562 C 70.714844 58.851562 70.765625 59.113281 70.765625 59.386719 C 70.765625 59.660156 70.714844 59.921875 70.613281 60.175781 C 70.507812 60.429688 70.359375 60.652344 70.167969 60.84375 C 69.976562 61.035156 69.757812 61.183594 69.507812 61.289062 C 69.257812 61.394531 68.996094 61.445312 68.726562 61.445312 L 68.046875 61.445312 L 68.046875 62.132812 C 68.046875 62.324219 68.113281 62.484375 68.246094 62.617188 C 68.378906 62.753906 68.539062 62.820312 68.726562 62.820312 L 70.148438 62.820312 C 70.226562 62.339844 70.386719 61.886719 70.625 61.464844 C 70.863281 61.042969 71.167969 60.675781 71.535156 60.363281 C 71.902344 60.046875 72.3125 59.808594 72.765625 59.640625 C 73.21875 59.472656 73.6875 59.390625 74.167969 59.390625 C 74.652344 59.390625 75.117188 59.472656 75.570312 59.640625 C 76.023438 59.808594 76.433594 60.046875 76.800781 60.363281 C 77.171875 60.675781 77.472656 61.042969 77.710938 61.464844 C 77.949219 61.886719 78.109375 62.339844 78.191406 62.820312 L 78.929688 62.820312 L 78.929688 49.78125 C 78.929688 49.59375 78.996094 49.429688 79.128906 49.296875 C 79.261719 49.164062 79.425781 49.09375 79.613281 49.09375 L 86.414062 49.09375 C 86.601562 49.09375 86.765625 49.164062 86.898438 49.296875 C 87.03125 49.429688 87.097656 49.59375 87.097656 49.78125 L 87.097656 62.820312 L 96.683594 62.820312 C 96.761719 62.339844 96.921875 61.886719 97.160156 61.464844 C 97.398438 61.042969 97.703125 60.675781 98.070312 60.363281 C 98.4375 60.046875 98.847656 59.808594 99.300781 59.640625 C 99.753906 59.472656 100.222656 59.390625 100.703125 59.390625 C 101.1875 59.390625 101.652344 59.472656 102.105469 59.640625 C 102.558594 59.808594 102.96875 60.046875 103.335938 60.363281 C 103.703125 60.675781 104.007812 61.042969 104.246094 61.464844 C 104.484375 61.886719 104.644531 62.339844 104.722656 62.820312 L 105.464844 62.820312 C 105.652344 62.820312 105.8125 62.753906 105.945312 62.617188 C 106.078125 62.484375 106.144531 62.324219 106.144531 62.132812 L 106.144531 47.722656 L 77.570312 47.722656 L 77.570312 53.210938 C 77.570312 53.402344 77.503906 53.5625 77.371094 53.699219 C 77.238281 53.832031 77.078125 53.898438 76.890625 53.898438 L 74.269531 53.898438 L 68.535156 55.636719 C 68.390625 55.675781 68.273438 55.761719 68.179688 55.882812 C 68.089844 56.003906 68.046875 56.140625 68.046875 56.292969 Z M 68.046875 57.328125 " fill-opacity="1" fill-rule="nonzero"/></g><path fill="rgb(13.729858%, 12.159729%, 12.548828%)" d="M 99.34375 63.503906 C 99.34375 63.6875 99.378906 63.863281 99.445312 64.03125 C 99.515625 64.199219 99.613281 64.347656 99.742188 64.476562 C 99.867188 64.605469 100.015625 64.703125 100.183594 64.773438 C 100.347656 64.84375 100.523438 64.878906 100.703125 64.878906 C 100.882812 64.878906 101.058594 64.84375 101.222656 64.773438 C 101.390625 64.703125 101.539062 64.605469 101.664062 64.476562 C 101.792969 64.347656 101.890625 64.199219 101.960938 64.03125 C 102.03125 63.863281 102.0625 63.6875 102.0625 63.503906 C 102.0625 63.324219 102.03125 63.148438 101.960938 62.980469 C 101.890625 62.8125 101.792969 62.664062 101.664062 62.535156 C 101.539062 62.40625 101.390625 62.308594 101.222656 62.238281 C 101.058594 62.167969 100.882812 62.132812 100.703125 62.132812 C 100.523438 62.132812 100.347656 62.167969 100.183594 62.238281 C 100.015625 62.308594 99.867188 62.40625 99.742188 62.535156 C 99.613281 62.664062 99.515625 62.8125 99.445312 62.980469 C 99.378906 63.148438 99.34375 63.324219 99.34375 63.503906 Z M 99.34375 63.503906 " fill-opacity="1" fill-rule="nonzero"/><path fill="rgb(13.729858%, 12.159729%, 12.548828%)" d="M 72.808594 63.503906 C 72.808594 63.6875 72.84375 63.863281 72.910156 64.03125 C 72.980469 64.199219 73.078125 64.347656 73.207031 64.476562 C 73.335938 64.605469 73.480469 64.703125 73.648438 64.773438 C 73.816406 64.84375 73.988281 64.878906 74.167969 64.878906 C 74.347656 64.878906 74.523438 64.84375 74.691406 64.773438 C 74.855469 64.703125 75.003906 64.605469 75.132812 64.476562 C 75.257812 64.347656 75.355469 64.199219 75.425781 64.03125 C 75.496094 63.863281 75.53125 63.6875 75.53125 63.503906 C 75.53125 63.324219 75.496094 63.148438 75.425781 62.980469 C 75.355469 62.8125 75.257812 62.664062 75.132812 62.535156 C 75.003906 62.40625 74.855469 62.308594 74.691406 62.238281 C 74.523438 62.167969 74.347656 62.132812 74.167969 62.132812 C 73.988281 62.132812 73.816406 62.167969 73.648438 62.238281 C 73.480469 62.308594 73.335938 62.40625 73.207031 62.535156 C 73.078125 62.664062 72.980469 62.8125 72.910156 62.980469 C 72.84375 63.148438 72.808594 63.324219 72.808594 63.503906 Z M 72.808594 63.503906 " fill-opacity="1" fill-rule="nonzero"/><path fill="rgb(13.729858%, 12.159729%, 12.548828%)" d="M 89.136719 49.09375 L 104.105469 49.09375 C 104.292969 49.09375 104.453125 49.164062 104.585938 49.296875 C 104.71875 49.429688 104.785156 49.59375 104.785156 49.78125 L 104.785156 55.269531 C 104.785156 55.460938 104.71875 55.621094 104.585938 55.757812 C 104.453125 55.890625 104.292969 55.957031 104.105469 55.957031 L 89.136719 55.957031 C 88.949219 55.957031 88.789062 55.890625 88.65625 55.757812 C 88.523438 55.621094 88.457031 55.460938 88.457031 55.269531 L 88.457031 49.78125 C 88.457031 49.59375 88.523438 49.429688 88.65625 49.296875 C 88.789062 49.164062 88.949219 49.09375 89.136719 49.09375 Z M 100.023438 54.585938 L 103.425781 54.585938 L 103.425781 50.46875 L 100.023438 50.46875 Z M 94.582031 54.585938 L 98.664062 54.585938 L 98.664062 50.46875 L 94.582031 50.46875 Z M 89.816406 54.585938 L 93.21875 54.585938 L 93.21875 50.46875 L 89.816406 50.46875 Z M 89.816406 54.585938 " fill-opacity="1" fill-rule="nonzero"/><path fill="rgb(15.689087%, 14.898682%, 14.898682%)" d="M 85.828125 32.386719 C 85.828125 32.1875 85.625 32.109375 85.460938 32.175781 C 83.246094 33.125 81.027344 34.074219 78.8125 35.023438 C 78.613281 35.109375 78.410156 35.195312 78.210938 35.28125 C 76.03125 34.34375 73.851562 33.410156 71.667969 32.476562 C 71.4375 32.378906 71.203125 32.277344 70.96875 32.175781 C 70.808594 32.109375 70.601562 32.1875 70.601562 32.386719 C 70.601562 33.5 70.601562 34.617188 70.601562 35.734375 C 70.601562 37.601562 72.347656 38.820312 73.925781 39.460938 C 76.292969 40.425781 79.117188 40.472656 81.5625 39.785156 C 83.320312 39.289062 85.507812 38.144531 85.796875 36.164062 C 85.890625 35.546875 85.828125 34.890625 85.828125 34.265625 C 85.828125 33.640625 85.828125 33.011719 85.828125 32.386719 " fill-opacity="1" fill-rule="nonzero"/><g clip-path="url(#clip-2)"><path fill="rgb(15.689087%, 14.898682%, 14.898682%)" d="M 79.679688 29.761719 C 79.589844 30.410156 78.8125 30.703125 78.214844 30.691406 C 77.65625 30.679688 76.707031 30.398438 76.746094 29.683594 C 76.8125 28.351562 79.511719 28.328125 79.683594 29.609375 C 79.6875 29.632812 79.691406 29.65625 79.6875 29.683594 C 79.691406 29.714844 79.6875 29.738281 79.679688 29.761719 Z M 89.761719 29.476562 C 87.722656 28.621094 85.6875 27.765625 83.648438 26.910156 C 82.328125 26.355469 81.011719 25.800781 79.691406 25.246094 C 79.316406 25.089844 78.941406 24.929688 78.566406 24.773438 C 78.386719 24.699219 78.242188 24.613281 78.046875 24.695312 C 75.816406 25.632812 73.585938 26.570312 71.355469 27.507812 C 69.792969 28.164062 68.234375 28.820312 66.671875 29.476562 C 66.566406 29.519531 66.53125 29.601562 66.546875 29.683594 C 66.53125 29.765625 66.566406 29.847656 66.671875 29.890625 C 68.710938 30.75 70.746094 31.605469 72.785156 32.460938 C 74.105469 33.015625 75.421875 33.570312 76.742188 34.121094 C 77.117188 34.28125 77.492188 34.4375 77.867188 34.597656 C 78.046875 34.671875 78.1875 34.753906 78.382812 34.671875 C 80.617188 33.734375 82.847656 32.796875 85.078125 31.859375 C 85.65625 31.617188 86.234375 31.375 86.8125 31.132812 C 86.808594 33.257812 86.804688 35.382812 86.796875 37.511719 C 86.796875 38.4375 86.792969 39.363281 86.792969 40.292969 C 86.789062 40.601562 87.277344 40.601562 87.28125 40.292969 C 87.285156 37.941406 87.289062 35.585938 87.296875 33.234375 C 87.296875 32.464844 87.300781 31.695312 87.300781 30.925781 C 88.121094 30.582031 88.941406 30.238281 89.761719 29.890625 C 89.921875 29.824219 89.921875 29.542969 89.761719 29.476562 " fill-opacity="1" fill-rule="nonzero"/></g><g clip-path="url(#clip-3)"><path fill="rgb(15.689087%, 14.898682%, 14.898682%)" d="M 87.777344 41.386719 C 87.722656 41.019531 87.441406 40.761719 87.050781 40.742188 C 86.636719 40.722656 86.335938 41.089844 86.316406 41.464844 C 86.292969 41.875 86.671875 42.167969 87.050781 42.1875 C 87.433594 42.210938 87.71875 41.894531 87.777344 41.550781 C 87.785156 41.527344 87.789062 41.496094 87.789062 41.464844 C 87.789062 41.4375 87.785156 41.410156 87.777344 41.386719 " fill-opacity="1" fill-rule="nonzero"/></g><g clip-path="url(#clip-4)"><path fill="rgb(32.939148%, 32.939148%, 32.939148%)" d="M 115.273438 21.265625 L 116.417969 20.121094 C 116.734375 19.800781 117.25 19.800781 117.566406 20.121094 C 117.882812 20.4375 117.882812 20.949219 117.566406 21.265625 L 116.417969 22.414062 C 117.367188 23.363281 117.367188 24.90625 116.417969 25.855469 C 113.253906 29.023438 104.484375 37.792969 102.269531 40.003906 C 101.847656 40.425781 101.339844 40.75 100.777344 40.953125 L 96.910156 42.347656 C 96.464844 42.507812 95.960938 42.398438 95.625 42.058594 C 95.289062 41.722656 95.175781 41.222656 95.339844 40.773438 C 95.722656 39.710938 96.378906 37.890625 96.734375 36.90625 C 96.933594 36.347656 97.257812 35.835938 97.679688 35.414062 L 111.253906 21.839844 C 111.101562 21.6875 110.898438 21.601562 110.683594 21.601562 C 110.46875 21.601562 110.261719 21.6875 110.109375 21.839844 C 108.195312 23.753906 104.570312 27.378906 104.570312 27.378906 C 104.25 27.695312 103.738281 27.695312 103.421875 27.378906 C 103.105469 27.0625 103.105469 26.550781 103.421875 26.234375 C 103.421875 26.234375 107.050781 22.605469 108.960938 20.695312 C 109.417969 20.238281 110.035156 19.980469 110.683594 19.980469 C 111.328125 19.980469 111.945312 20.238281 112.402344 20.695312 L 112.5 20.792969 C 113.40625 20.359375 114.523438 20.515625 115.273438 21.265625 Z M 98.386719 37.167969 C 98.339844 37.261719 98.296875 37.359375 98.257812 37.457031 L 97.148438 40.535156 L 100.226562 39.425781 C 100.328125 39.390625 100.425781 39.347656 100.519531 39.300781 C 100.078125 38.363281 99.320312 37.609375 98.386719 37.167969 Z M 100.710938 34.679688 L 99.484375 35.910156 C 100.4375 36.453125 101.234375 37.246094 101.777344 38.203125 L 103.003906 36.976562 C 102.554688 35.953125 101.730469 35.132812 100.710938 34.679688 Z M 104.210938 35.769531 L 115.273438 24.710938 C 115.589844 24.390625 115.589844 23.878906 115.273438 23.5625 C 114.902344 23.191406 114.492188 22.785156 114.125 22.414062 C 113.808594 22.097656 113.292969 22.097656 112.976562 22.414062 L 101.917969 33.472656 C 102.871094 34.019531 103.667969 34.8125 104.210938 35.769531 Z M 104.210938 35.769531 " fill-opacity="1" fill-rule="evenodd"/></g><g clip-path="url(#clip-5)"><path fill="rgb(0%, 0%, 0%)" d="M 114.125 49.976562 L 111.726562 54.207031 C 111.570312 54.445312 111.570312 54.679688 111.726562 54.914062 C 111.871094 55.152344 112.082031 55.269531 112.359375 55.265625 L 117.296875 55.265625 L 117.296875 48.917969 L 116.027344 48.917969 C 115.183594 48.917969 114.476562 49.339844 114.125 49.976562 Z M 114.125 49.976562 " fill-opacity="1" fill-rule="nonzero"/></g><g clip-path="url(#clip-6)"><path fill="rgb(0%, 0%, 0%)" d="M 143.964844 54.207031 L 141.566406 49.976562 C 141.378906 49.648438 141.117188 49.386719 140.789062 49.199219 C 140.460938 49.007812 140.109375 48.914062 139.730469 48.917969 L 138.390625 48.917969 L 138.390625 55.265625 L 143.332031 55.265625 C 143.609375 55.269531 143.820312 55.148438 143.964844 54.914062 C 144.039062 54.679688 144.039062 54.441406 143.964844 54.207031 Z M 143.964844 54.207031 " fill-opacity="1" fill-rule="nonzero"/></g><g clip-path="url(#clip-7)"><path fill="rgb(0%, 0%, 0%)" d="M 112.996094 65.140625 C 112.996094 66.34375 113.910156 67.257812 115.109375 67.257812 L 117.226562 67.257812 L 117.226562 56.675781 L 112.996094 56.675781 Z M 112.996094 65.140625 " fill-opacity="1" fill-rule="nonzero"/></g><g clip-path="url(#clip-8)"><path fill="rgb(0%, 0%, 0%)" d="M 138.390625 67.257812 L 140.507812 67.257812 C 141.707031 67.257812 142.625 66.34375 142.625 65.140625 L 142.625 56.675781 L 138.390625 56.675781 Z M 138.390625 67.257812 " fill-opacity="1" fill-rule="nonzero"/></g><g clip-path="url(#clip-9)"><path fill="rgb(0%, 0%, 0%)" d="M 128.515625 40.875 L 128.515625 39.039062 L 132.042969 39.039062 C 132.464844 39.039062 132.75 38.757812 132.75 38.335938 L 132.75 35.511719 C 132.75 35.089844 132.464844 34.808594 132.042969 34.808594 L 127.808594 34.808594 C 127.386719 34.808594 127.105469 35.089844 127.105469 35.511719 L 127.105469 40.875 L 118.851562 49.128906 C 118.703125 49.261719 118.632812 49.425781 118.640625 49.621094 L 118.640625 66.554688 C 118.640625 66.976562 118.921875 67.257812 119.34375 67.257812 L 122.167969 67.257812 L 122.167969 58.792969 C 122.167969 58.371094 122.449219 58.085938 122.871094 58.085938 L 132.75 58.085938 C 133.171875 58.085938 133.453125 58.371094 133.453125 58.792969 L 133.453125 67.257812 L 136.273438 67.257812 C 136.699219 67.257812 136.980469 66.976562 136.980469 66.554688 L 136.980469 49.621094 C 136.988281 49.425781 136.917969 49.261719 136.769531 49.128906 Z M 127.808594 53.148438 C 127.433594 53.148438 127.074219 53.078125 126.730469 52.933594 C 126.382812 52.792969 126.078125 52.585938 125.8125 52.324219 C 125.550781 52.058594 125.34375 51.753906 125.203125 51.40625 C 125.058594 51.0625 124.988281 50.703125 124.988281 50.328125 C 124.988281 49.953125 125.058594 49.59375 125.203125 49.246094 C 125.34375 48.902344 125.550781 48.597656 125.8125 48.332031 C 126.078125 48.066406 126.382812 47.863281 126.730469 47.71875 C 127.074219 47.578125 127.433594 47.503906 127.808594 47.503906 C 128.183594 47.503906 128.542969 47.578125 128.890625 47.71875 C 129.234375 47.863281 129.539062 48.066406 129.804688 48.332031 C 130.070312 48.597656 130.273438 48.902344 130.417969 49.246094 C 130.558594 49.59375 130.632812 49.953125 130.632812 50.328125 C 130.628906 50.703125 130.558594 51.0625 130.414062 51.40625 C 130.269531 51.75 130.066406 52.054688 129.804688 52.320312 C 129.539062 52.585938 129.234375 52.789062 128.886719 52.933594 C 128.542969 53.078125 128.183594 53.148438 127.808594 53.148438 Z M 127.808594 53.148438 " fill-opacity="1" fill-rule="nonzero"/></g><path fill="rgb(0%, 0%, 0%)" d="M 129.21875 50.328125 C 129.21875 50.515625 129.183594 50.695312 129.113281 50.867188 C 129.042969 51.039062 128.941406 51.191406 128.808594 51.324219 C 128.675781 51.457031 128.523438 51.558594 128.347656 51.632812 C 128.175781 51.703125 127.996094 51.738281 127.808594 51.738281 C 127.621094 51.738281 127.441406 51.703125 127.269531 51.632812 C 127.097656 51.558594 126.945312 51.457031 126.8125 51.324219 C 126.679688 51.191406 126.578125 51.039062 126.507812 50.867188 C 126.433594 50.695312 126.398438 50.515625 126.398438 50.328125 C 126.398438 50.140625 126.433594 49.960938 126.507812 49.789062 C 126.578125 49.613281 126.679688 49.460938 126.8125 49.332031 C 126.945312 49.199219 127.097656 49.097656 127.269531 49.023438 C 127.441406 48.953125 127.621094 48.917969 127.808594 48.917969 C 127.996094 48.917969 128.175781 48.953125 128.347656 49.023438 C 128.523438 49.097656 128.675781 49.199219 128.808594 49.332031 C 128.941406 49.460938 129.042969 49.613281 129.113281 49.789062 C 129.183594 49.960938 129.21875 50.140625 129.21875 50.328125 Z M 129.21875 50.328125 " fill-opacity="1" fill-rule="nonzero"/><g clip-path="url(#clip-10)"><path fill="rgb(0%, 0%, 0%)" d="M 128.515625 59.5 L 132.042969 59.5 L 132.042969 67.257812 L 128.515625 67.257812 Z M 128.515625 59.5 " fill-opacity="1" fill-rule="nonzero"/></g><g clip-path="url(#clip-11)"><path fill="rgb(0%, 0%, 0%)" d="M 123.578125 59.5 L 127.105469 59.5 L 127.105469 67.257812 L 123.578125 67.257812 Z M 123.578125 59.5 " fill-opacity="1" fill-rule="nonzero"/></g><g clip-path="url(#clip-12)"><path fill="rgb(13.729858%, 13.729858%, 13.729858%)" d="M 45.3125 58.546875 L 46.617188 59.847656 C 46.742188 59.972656 46.90625 60.035156 47.074219 60.035156 C 47.238281 60.035156 47.40625 59.972656 47.53125 59.847656 C 47.785156 59.59375 47.785156 59.1875 47.53125 58.933594 L 46.226562 57.632812 L 47.429688 56.433594 L 49.34375 58.34375 C 49.46875 58.46875 49.636719 58.53125 49.800781 58.53125 C 49.964844 58.53125 50.132812 58.46875 50.257812 58.34375 C 50.511719 58.089844 50.511719 57.683594 50.257812 57.429688 L 48.34375 55.523438 L 49.546875 54.320312 L 50.851562 55.621094 C 50.976562 55.75 51.144531 55.8125 51.308594 55.8125 C 51.472656 55.8125 51.640625 55.75 51.765625 55.621094 C 52.019531 55.371094 52.019531 54.960938 51.765625 54.710938 L 50.460938 53.410156 L 51.664062 52.210938 L 52.96875 53.511719 C 53.09375 53.636719 53.261719 53.699219 53.425781 53.699219 C 53.59375 53.699219 53.757812 53.636719 53.882812 53.511719 C 54.136719 53.257812 54.136719 52.851562 53.882812 52.597656 L 52.578125 51.296875 L 53.78125 50.097656 L 55.085938 51.398438 C 55.210938 51.523438 55.378906 51.589844 55.542969 51.589844 C 55.710938 51.589844 55.875 51.523438 56 51.398438 C 56.253906 51.148438 56.253906 50.738281 56 50.484375 L 54.699219 49.1875 L 55.898438 47.988281 L 57.8125 49.894531 C 57.941406 50.019531 58.105469 50.085938 58.273438 50.085938 C 58.4375 50.085938 58.601562 50.019531 58.730469 49.894531 C 58.980469 49.644531 58.980469 49.234375 58.730469 48.984375 L 56.816406 47.074219 L 58.019531 45.875 L 59.320312 47.175781 C 59.449219 47.300781 59.613281 47.363281 59.78125 47.363281 C 59.945312 47.363281 60.109375 47.300781 60.238281 47.175781 C 60.488281 46.921875 60.488281 46.515625 60.238281 46.261719 L 58.933594 44.960938 L 60.136719 43.761719 L 61.441406 45.0625 C 61.566406 45.1875 61.730469 45.253906 61.898438 45.253906 C 62.0625 45.253906 62.230469 45.1875 62.355469 45.0625 C 62.609375 44.8125 62.609375 44.402344 62.355469 44.148438 L 61.050781 42.851562 L 62.253906 41.652344 L 63.558594 42.949219 C 63.683594 43.078125 63.847656 43.140625 64.015625 43.140625 C 64.179688 43.140625 64.347656 43.078125 64.472656 42.949219 C 64.726562 42.699219 64.726562 42.289062 64.472656 42.039062 L 63.167969 40.738281 L 64.113281 39.796875 L 67.207031 42.878906 L 47.460938 62.574219 L 44.367188 59.488281 Z M 47.460938 64.128906 C 47.625 64.128906 47.792969 64.066406 47.917969 63.941406 L 68.578125 43.335938 C 68.699219 43.214844 68.769531 43.050781 68.769531 42.878906 C 68.769531 42.710938 68.699219 42.546875 68.578125 42.425781 L 64.570312 38.425781 C 64.316406 38.175781 63.90625 38.175781 63.65625 38.425781 L 61.796875 40.28125 L 59.679688 42.394531 C 59.679688 42.394531 59.679688 42.394531 59.675781 42.394531 L 42.996094 59.03125 C 42.871094 59.152344 42.804688 59.316406 42.804688 59.488281 C 42.804688 59.660156 42.871094 59.824219 42.996094 59.945312 L 47.003906 63.941406 C 47.128906 64.066406 47.292969 64.128906 47.460938 64.128906 " fill-opacity="1" fill-rule="nonzero"/></g><g clip-path="url(#clip-13)"><path fill="rgb(0%, 0%, 0%)" d="M 94.070312 21.496094 C 90.269531 21.496094 87.160156 18.347656 87.160156 14.5 C 87.160156 10.648438 90.269531 7.5 94.070312 7.5 C 97.867188 7.5 100.976562 10.648438 100.976562 14.5 C 100.976562 18.347656 97.867188 21.496094 94.070312 21.496094 Z M 94.070312 12.75 C 93.839844 12.75 93.617188 12.792969 93.40625 12.882812 C 93.195312 12.972656 93.007812 13.097656 92.847656 13.261719 C 92.683594 13.425781 92.558594 13.617188 92.472656 13.828125 C 92.386719 14.042969 92.339844 14.265625 92.339844 14.5 C 92.339844 14.730469 92.386719 14.953125 92.472656 15.167969 C 92.558594 15.382812 92.683594 15.574219 92.847656 15.738281 C 93.007812 15.902344 93.195312 16.027344 93.40625 16.117188 C 93.617188 16.203125 93.839844 16.25 94.070312 16.25 C 94.296875 16.25 94.519531 16.203125 94.730469 16.117188 C 94.941406 16.027344 95.128906 15.902344 95.289062 15.738281 C 95.453125 15.574219 95.578125 15.382812 95.664062 15.167969 C 95.75 14.953125 95.796875 14.730469 95.796875 14.5 C 95.792969 14.265625 95.75 14.042969 95.664062 13.832031 C 95.574219 13.617188 95.449219 13.425781 95.289062 13.261719 C 95.125 13.097656 94.941406 12.972656 94.730469 12.882812 C 94.515625 12.796875 94.296875 12.75 94.070312 12.75 Z M 94.070312 12.75 " fill-opacity="1" fill-rule="nonzero"/></g><path fill="rgb(0%, 0%, 0%)" d="M 93.207031 14.5 C 93.207031 14.742188 93.289062 14.945312 93.457031 15.117188 C 93.625 15.289062 93.828125 15.375 94.070312 15.375 C 94.308594 15.375 94.511719 15.289062 94.679688 15.117188 C 94.847656 14.945312 94.933594 14.742188 94.933594 14.5 C 94.933594 14.257812 94.847656 14.050781 94.679688 13.878906 C 94.511719 13.710938 94.308594 13.625 94.070312 13.625 C 93.828125 13.625 93.625 13.710938 93.457031 13.878906 C 93.289062 14.050781 93.207031 14.257812 93.207031 14.5 Z M 93.207031 14.5 " fill-opacity="1" fill-rule="nonzero"/><g clip-path="url(#clip-14)"><path fill="rgb(0%, 0%, 0%)" d="M 82.84375 16.6875 C 82.839844 16.453125 82.882812 16.226562 82.96875 16.007812 C 83.054688 15.789062 83.175781 15.597656 83.339844 15.429688 C 83.503906 15.265625 83.691406 15.136719 83.902344 15.046875 C 84.117188 14.953125 84.339844 14.910156 84.570312 14.910156 C 84.800781 14.910156 85.023438 14.953125 85.238281 15.046875 C 85.449219 15.136719 85.640625 15.265625 85.800781 15.429688 C 85.964844 15.597656 86.085938 15.789062 86.171875 16.007812 C 86.257812 16.226562 86.300781 16.453125 86.296875 16.6875 C 86.296875 17.515625 85.734375 18.171875 85.003906 18.390625 L 85.003906 21.5 C 85.003906 21.964844 85.09375 22.410156 85.269531 22.835938 C 85.445312 23.265625 85.691406 23.644531 86.015625 23.96875 C 86.339844 24.296875 86.714844 24.550781 87.136719 24.730469 C 87.558594 24.90625 88 24.996094 88.457031 25 L 88.886719 25 C 88.886719 24.253906 89.449219 23.6875 90.183594 23.6875 L 90.914062 23.6875 L 91.347656 21.847656 C 92.234375 22.207031 93.15625 22.382812 94.109375 22.375 C 95.066406 22.382812 95.984375 22.207031 96.875 21.847656 L 97.304688 23.6875 L 97.953125 23.6875 C 98.6875 23.6875 99.25 24.253906 99.25 25 L 99.25 27.183594 C 99.25 27.449219 99.078125 27.621094 98.816406 27.621094 L 89.320312 27.621094 C 89.058594 27.621094 88.886719 27.449219 88.886719 27.183594 L 88.886719 25.871094 L 88.457031 25.871094 C 86.082031 25.871094 84.136719 23.902344 84.136719 21.496094 L 84.136719 18.390625 C 83.40625 18.171875 82.84375 17.519531 82.84375 16.6875 Z M 97.089844 25.871094 C 97.351562 25.871094 97.523438 25.695312 97.523438 25.433594 C 97.523438 25.171875 97.351562 24.996094 97.089844 24.996094 C 96.832031 24.996094 96.660156 25.171875 96.660156 25.433594 C 96.660156 25.695312 96.832031 25.871094 97.089844 25.871094 Z M 95.796875 25.871094 C 96.054688 25.871094 96.226562 25.695312 96.226562 25.433594 C 96.226562 25.171875 96.054688 24.996094 95.796875 24.996094 C 95.535156 24.996094 95.363281 25.171875 95.363281 25.433594 C 95.363281 25.695312 95.535156 25.871094 95.796875 25.871094 Z M 95.796875 25.871094 " fill-opacity="1" fill-rule="nonzero"/></g></svg>
